SplineFontDB: 3.0
FontName: Comme-Bold
FullName: Comme Bold
FamilyName: Comme
Weight: Bold
Copyright: Digitized data Copyright (c) 2011-2014, vernon adams.
Version: 2
ItalicAngle: 0
UnderlinePosition: 0
UnderlineWidth: 0
Ascent: 1638
Descent: 410
UFOAscent: 1560
UFODescent: -556
LayerCount: 2
Layer: 0 0 "Back"  1
Layer: 1 0 "Fore"  0
FSType: 0
OS2Version: 0
OS2_WeightWidthSlopeOnly: 0
OS2_UseTypoMetrics: 1
CreationTime: 1392159046
ModificationTime: 1392242414
PfmFamily: 17
TTFWeight: 700
TTFWidth: 5
LineGap: 0
VLineGap: 0
OS2TypoAscent: 2390
OS2TypoAOffset: 0
OS2TypoDescent: -512
OS2TypoDOffset: 0
OS2TypoLinegap: 0
OS2WinAscent: 2390
OS2WinAOffset: 0
OS2WinDescent: 512
OS2WinDOffset: 0
HheadAscent: 2390
HheadAOffset: 0
HheadDescent: -512
HheadDOffset: 0
OS2Vendor: 'NeWT'
Lookup: 4 0 1 "ligaStandardLigatureslookup0"  {"ligaStandardLigatureslookup0 subtable"  } ['liga' ('latn' <'dflt' > 'grek' <'dflt' > 'DFLT' <'dflt' > ) ]
Lookup: 4 0 0 "fracDiagonalFractionslookup11"  {"fracDiagonalFractionslookup11 subtable"  } ['frac' ('latn' <'dflt' 'CAT ' 'MOL ' 'ROM ' 'TRK ' > 'grek' <'dflt' > 'DFLT' <'dflt' > ) ]
Lookup: 6 0 0 "ordnOrdinalslookup12"  {"ordnOrdinalslookup12 contextual 0"  "ordnOrdinalslookup12 contextual 1"  } ['ordn' ('latn' <'dflt' 'CAT ' 'MOL ' 'ROM ' 'TRK ' > 'grek' <'dflt' > 'DFLT' <'dflt' > ) ]
Lookup: 1 0 0 "Single Substitution lookup 3"  {"Single Substitution lookup 3 subtable"  } []
Lookup: 1 0 0 "Single Substitution lookup 4"  {"Single Substitution lookup 4 subtable"  } []
Lookup: 4 0 0 "dligDiscretionaryLigatureslooku"  {"dligDiscretionaryLigatureslooku subtable"  } ['dlig' ('latn' <'dflt' 'CAT ' 'MOL ' 'ROM ' 'TRK ' > 'grek' <'dflt' > 'DFLT' <'dflt' > ) ]
MarkAttachClasses: 1
DEI: 91125
ChainSub2: coverage "ordnOrdinalslookup12 contextual 1"  0 0 0 1
 1 1 0
  Coverage: 3 O o
  BCoverage: 49 zero one two three four five six seven eight nine
 1
  SeqLookup: 0 "Single Substitution lookup 4" 
EndFPST

StartChar: A
Encoding: 33 65 0
Width: 1502
VWidth: 0
GlyphClass: 2
Flags: W
PickledData: "(dp1
S'org.pippin.gimp.org.kernagic'
p2
(dp3
S'lstem'
p4
I0
sS'rstem'
p5
I0
ssS'com.typemytype.robofont.layerData'
p6
(dp7
sS'org.robofab.postScriptHintData'
p8
(dp9
s."
AnchorPoint: "bot" 755 0 basechar 0
AnchorPoint: "top" 756 1456 basechar 0
LayerCount: 2
Fore
SplineSet
556 1456 m 257
 56 0 l 257
 382 0 l 257
 511 389 l 257
 986 389 l 257
 1120 0 l 257
 1446 0 l 257
 949 1456 l 257
 556 1456 l 257
574 591 m 257
 752 1188 l 257
 928 591 l 257
 574 591 l 257
EndSplineSet
Substitution2: "Single Substitution lookup 3 subtable" ordfeminine
EndChar

StartChar: AE
Encoding: 133 198 1
Width: 1913
VWidth: 0
GlyphClass: 2
Flags: W
PickledData: "(dp1
S'org.pippin.gimp.org.kernagic'
p2
(dp3
S'lstem'
p4
I0
sS'rstem'
p5
I0
ssS'com.typemytype.robofont.layerData'
p6
(dp7
sS'org.robofab.postScriptHintData'
p8
(dp9
s."
LayerCount: 2
Fore
SplineSet
909 583 m 257
 613 583 l 257
 909 1121 l 257
 909 583 l 257
840 1456 m 257
 -20 0 l 257
 302 0 l 257
 521 389 l 257
 909 389 l 257
 909 0 l 257
 1808 0 l 257
 1818 218 l 257
 1167 218 l 257
 1167 637 l 257
 1749 637 l 257
 1749 850 l 257
 1167 850 l 257
 1167 1244 l 257
 1781 1244 l 257
 1797 1456 l 257
 840 1456 l 257
EndSplineSet
EndChar

StartChar: B
Encoding: 34 66 13
Width: 1423
VWidth: 0
GlyphClass: 2
Flags: W
PickledData: "(dp1
S'org.pippin.gimp.org.kernagic'
p2
(dp3
S'lstem'
p4
I0
sS'rstem'
p5
I0
ssS'com.typemytype.robofont.layerData'
p6
(dp7
sS'org.robofab.postScriptHintData'
p8
(dp9
s."
AnchorPoint: "top" 687 1456 basechar 0
LayerCount: 2
Fore
SplineSet
594 -1 m 256
 1167 -1 1324 144 1324 433 c 256
 1324 633 1229 738 1009 784 c 257
 1187 839 1282 946 1282 1088 c 256
 1282 1399 1037 1466 622 1466 c 256
 496 1466 348 1460 181 1448 c 257
 181 16 l 257
 338 4 476 -1 594 -1 c 256
505 1257 m 257
 550 1260 600 1261 644 1261 c 256
 867 1261 949 1218 949 1057 c 256
 949 912 843 868 695 868 c 258
 505 868 l 257
 505 1257 l 257
505 672 m 257
 688 672 l 258
 898 672 1001 632 1001 451 c 256
 1001 280 926 213 628 213 c 256
 588 213 545 215 505 218 c 257
 505 672 l 257
EndSplineSet
EndChar

StartChar: C
Encoding: 35 67 14
Width: 1545
VWidth: 0
GlyphClass: 2
Flags: W
PickledData: "(dp1
S'org.pippin.gimp.org.kernagic'
p2
(dp3
S'lstem'
p4
I0
sS'rstem'
p5
I0
ssS'com.typemytype.robofont.layerData'
p6
(dp7
sS'org.robofab.postScriptHintData'
p8
(dp9
s."
AnchorPoint: "bot" 840 0 basechar 0
AnchorPoint: "top" 849 1456 basechar 0
LayerCount: 2
Fore
SplineSet
1442 1047 m 257
 1400 1240 1218 1476 834 1476 c 256
 393 1476 127 1205 127 732 c 256
 127 249 394 -20 836 -20 c 256
 1229 -20 1401 214 1443 407 c 257
 1206 502 l 257
 1181 502 l 257
 1146 355 1036 207 841 207 c 256
 624 207 470 358 470 732 c 256
 470 1101 612 1249 858 1249 c 256
 1041 1249 1145 1093 1180 953 c 257
 1204 953 l 257
 1442 1047 l 257
EndSplineSet
EndChar

StartChar: D
Encoding: 36 68 21
Width: 1538
VWidth: 0
GlyphClass: 2
Flags: W
PickledData: "(dp1
S'org.pippin.gimp.org.kernagic'
p2
(dp3
S'lstem'
p4
I0
sS'rstem'
p5
I0
ssS'com.fontlab.hintData'
p6
(dp7
S'vhints'
p8
((dp9
S'position'
p10
I1280
sS'width'
p11
I122
stp12
sS'hhints'
p13
((dp14
g10
I0
sg11
I94
s(dp15
g10
I1355
sg11
I94
stp16
ssS'com.typemytype.robofont.layerData'
p17
(dp18
sS'org.robofab.postScriptHintData'
p19
(dp20
s."
HStem: 0 94 1355 94
VStem: 1280 122
AnchorPoint: "bot" 772 0 basechar 0
AnchorPoint: "top" 790 1456 basechar 0
LayerCount: 2
Fore
SplineSet
181 7 m 257
 297 -5 402 -11 499 -11 c 256
 1196 -11 1411 300 1411 754 c 256
 1411 1242 1200 1466 544 1466 c 256
 436 1466 315 1460 181 1448 c 257
 181 7 l 257
505 222 m 257
 505 1243 l 257
 539 1245 572 1247 602 1247 c 256
 1032 1247 1096 1028 1096 749 c 256
 1096 428 980 219 585 219 c 256
 560 219 533 220 505 222 c 257
EndSplineSet
EndChar

StartChar: uni0394
Encoding: 413 916 24
Width: 1334
VWidth: 0
Flags: W
PickledData: "(dp1
S'org.pippin.gimp.org.kernagic'
p2
(dp3
S'lstem'
p4
I0
sS'rstem'
p5
I0
ssS'com.typemytype.robofont.layerData'
p6
(dp7
S'b'
(dp8
S'name'
p9
S'Delta'
p10
sS'lib'
p11
(dp12
sS'unicodes'
p13
(tsS'width'
p14
I1334
sS'contours'
p15
(tsS'components'
p16
(tsS'anchors'
p17
(tsssS'org.robofab.postScriptHintData'
p18
(dp19
s."
LayerCount: 2
Fore
SplineSet
309 193 m 257
 652 1265 l 257
 1002 193 l 257
 309 193 l 257
25 0 m 257
 1282 0 l 257
 764 1515 l 257
 541 1515 l 257
 25 0 l 257
EndSplineSet
EndChar

StartChar: E
Encoding: 37 69 25
Width: 1345
VWidth: 0
GlyphClass: 2
Flags: W
PickledData: "(dp1
S'org.pippin.gimp.org.kernagic'
p2
(dp3
S'lstem'
p4
I0
sS'rstem'
p5
I0
ssS'com.typemytype.robofont.layerData'
p6
(dp7
sS'org.robofab.postScriptHintData'
p8
(dp9
s."
AnchorPoint: "bot" 679 0 basechar 0
AnchorPoint: "top" 751 1456 basechar 0
LayerCount: 2
Fore
SplineSet
181 1456 m 257
 181 0 l 257
 1210 0 l 257
 1217 226 l 257
 505 226 l 257
 505 637 l 257
 1152 637 l 257
 1152 858 l 257
 505 858 l 257
 505 1236 l 257
 1182 1236 l 257
 1198 1456 l 257
 181 1456 l 257
EndSplineSet
EndChar

StartChar: Eng
Encoding: 265 330 34
Width: 1600
VWidth: 0
GlyphClass: 2
Flags: W
PickledData: "(dp1
S'org.robofab.postScriptHintData'
p2
(dp3
s."
LayerCount: 2
Fore
SplineSet
1121 1023 m 257
 1121 -13 l 258
 1121 -237 1083 -284 813 -284 c 257
 831 -484 l 257
 1277 -471 1422 -353 1422 -41 c 258
 1422 1023 l 257
 1121 1023 l 257
EndSplineSet
Refer: 70 78 N 1 0 0 1 0 0 2
EndChar

StartChar: Euro
Encoding: 461 8364 37
Width: 1391
VWidth: 0
GlyphClass: 2
Flags: W
PickledData: "(dp1
S'org.pippin.gimp.org.kernagic'
p2
(dp3
S'lstem'
p4
I0
sS'rstem'
p5
I0
ssS'com.typemytype.robofont.layerData'
p6
(dp7
S'b'
(dp8
S'name'
p9
S'Euro'
p10
sS'lib'
p11
(dp12
sS'unicodes'
p13
(tsS'width'
p14
I1391
sS'contours'
p15
(tsS'components'
p16
(tsS'anchors'
p17
(tsssS'org.robofab.postScriptHintData'
p18
(dp19
s."
LayerCount: 2
Fore
SplineSet
-78 527 m 257
 805 527 l 257
 806 668 l 257
 249 668 l 257
 249 806 l 257
 806 806 l 257
 809 948 l 257
 -75 948 l 257
 -77 806 l 257
 97 806 l 257
 97 668 l 257
 -78 668 l 257
 -78 527 l 257
EndSplineSet
Refer: 14 67 N 1 0 0 1 -49 0 2
EndChar

StartChar: F
Encoding: 38 70 38
Width: 1243
VWidth: 0
GlyphClass: 2
Flags: W
PickledData: "(dp1
S'org.pippin.gimp.org.kernagic'
p2
(dp3
S'lstem'
p4
I0
sS'rstem'
p5
I705
ssS'com.typemytype.robofont.layerData'
p6
(dp7
sS'org.robofab.postScriptHintData'
p8
(dp9
s."
AnchorPoint: "top" 730 1456 basechar 0
LayerCount: 2
Fore
SplineSet
181 1456 m 257
 181 0 l 257
 505 0 l 257
 505 610 l 257
 1118 610 l 257
 1118 829 l 257
 505 829 l 257
 505 1227 l 257
 1163 1227 l 257
 1178 1456 l 257
 181 1456 l 257
EndSplineSet
EndChar

StartChar: G
Encoding: 39 71 39
Width: 1559
VWidth: 0
GlyphClass: 2
Flags: W
PickledData: "(dp1
S'org.pippin.gimp.org.kernagic'
p2
(dp3
S'lstem'
p4
I0
sS'rstem'
p5
I0
ssS'com.typemytype.robofont.layerData'
p6
(dp7
sS'org.robofab.postScriptHintData'
p8
(dp9
s."
AnchorPoint: "bot" 773 0 basechar 0
AnchorPoint: "top" 825 1456 basechar 0
LayerCount: 2
Fore
SplineSet
835 -20 m 256
 1067 -20 1257 11 1412 81 c 257
 1412 806 l 257
 838 806 l 257
 829 600 l 257
 1140 579 l 257
 1140 246 l 257
 1079 224 995 206 888 206 c 256
 635 206 470 344 470 730 c 256
 470 1077 605 1249 870 1249 c 256
 1044 1249 1133 1145 1187 1047 c 257
 1211 1047 l 257
 1417 1171 l 257
 1335 1347 1153 1476 844 1476 c 256
 399 1476 127 1200 127 730 c 256
 127 256 388 -20 835 -20 c 256
EndSplineSet
EndChar

StartChar: H
Encoding: 40 72 45
Width: 1578
VWidth: 0
GlyphClass: 2
Flags: W
PickledData: "(dp1
S'org.pippin.gimp.org.kernagic'
p2
(dp3
S'lstem'
p4
I0
sS'rstem'
p5
I0
ssS'com.typemytype.robofont.layerData'
p6
(dp7
sS'org.robofab.postScriptHintData'
p8
(dp9
s."
AnchorPoint: "top" 801 1456 basechar 0
LayerCount: 2
Fore
SplineSet
1071 636 m 257
 1071 -4 l 257
 1396 -4 l 257
 1396 1456 l 257
 1071 1456 l 257
 1071 857 l 257
 507 857 l 257
 507 1456 l 257
 182 1456 l 257
 182 -4 l 257
 507 -4 l 257
 507 636 l 257
 1071 636 l 257
EndSplineSet
EndChar

StartChar: Hbar
Encoding: 229 294 46
Width: 1558
VWidth: 0
GlyphClass: 2
Flags: W
PickledData: "(dp1
S'org.pippin.gimp.org.kernagic'
p2
(dp3
S'lstem'
p4
I0
sS'rstem'
p5
I0
ssS'com.typemytype.robofont.layerData'
p6
(dp7
sS'org.robofab.postScriptHintData'
p8
(dp9
s."
LayerCount: 2
Fore
SplineSet
63 1286 m 257
 63 1109 l 257
 1490 1109 l 257
 1490 1286 l 257
 63 1286 l 257
EndSplineSet
Refer: 45 72 N 1 0 0 1 0 0 2
EndChar

StartChar: I
Encoding: 41 73 48
Width: 1028
VWidth: 0
GlyphClass: 2
Flags: W
PickledData: "(dp1
S'org.pippin.gimp.org.kernagic'
p2
(dp3
S'lstem'
p4
I0
sS'rstem'
p5
I0
ssS'com.fontlab.hintData'
p6
(dp7
S'vhints'
p8
((dp9
S'position'
p10
I111
sS'width'
p11
I529
stp12
sS'hhints'
p13
((dp14
g10
I0
sg11
I86
s(dp15
g10
I1363
sg11
I86
stp16
ssS'com.typemytype.robofont.layerData'
p17
(dp18
sS'org.robofab.postScriptHintData'
p19
(dp20
s."
HStem: 0 86 1363 86
VStem: 111 529
AnchorPoint: "top" 515 1456 basechar 0
LayerCount: 2
Fore
SplineSet
141 1456 m 257
 141 1278 l 257
 353 1278 l 257
 353 174 l 257
 141 174 l 257
 141 -4 l 257
 883 -4 l 257
 883 174 l 257
 677 174 l 257
 677 1278 l 257
 883 1278 l 257
 883 1456 l 257
 141 1456 l 257
EndSplineSet
EndChar

StartChar: J
Encoding: 42 74 59
Width: 811
VWidth: 0
GlyphClass: 2
Flags: W
PickledData: "(dp1
S'org.pippin.gimp.org.kernagic'
p2
(dp3
S'lstem'
p4
I132
sS'rstem'
p5
I0
ssS'com.typemytype.robofont.layerData'
p6
(dp7
sS'org.robofab.postScriptHintData'
p8
(dp9
s."
AnchorPoint: "top" 462 1456 basechar 0
LayerCount: 2
Fore
SplineSet
295 1456 m 257
 295 205 l 258
 295 -100 287 -148 176 -200 c 258
 3 -282 l 257
 114 -530 l 257
 257 -469 l 258
 610 -318 619 -202 619 141 c 258
 619 198 l 257
 619 1456 l 257
 295 1456 l 257
EndSplineSet
EndChar

StartChar: K
Encoding: 43 75 61
Width: 1412
VWidth: 0
GlyphClass: 2
Flags: W
PickledData: "(dp1
S'org.pippin.gimp.org.kernagic'
p2
(dp3
S'lstem'
p4
I0
sS'rstem'
p5
I851
ssS'com.typemytype.robofont.layerData'
p6
(dp7
sS'org.robofab.postScriptHintData'
p8
(dp9
s."
AnchorPoint: "bot" 751 0 basechar 0
AnchorPoint: "top" 752 1456 basechar 0
LayerCount: 2
Fore
SplineSet
1367 1456 m 257
 1011 1456 l 257
 505 855 l 257
 505 1456 l 257
 181 1456 l 257
 181 0 l 257
 505 0 l 257
 505 542 l 257
 587 633 l 257
 1054 0 l 257
 1417 0 l 257
 1417 10 l 257
 826 806 l 257
 1367 1448 l 257
 1367 1456 l 257
EndSplineSet
EndChar

StartChar: L
Encoding: 44 76 63
Width: 1174
VWidth: 0
GlyphClass: 2
Flags: W
PickledData: "(dp1
S'org.pippin.gimp.org.kernagic'
p2
(dp3
S'lstem'
p4
I0
sS'rstem'
p5
I597
ssS'com.typemytype.robofont.layerData'
p6
(dp7
sS'org.robofab.postScriptHintData'
p8
(dp9
s."
AnchorPoint: "bot" 579 0 basechar 0
AnchorPoint: "top" 394 1456 basechar 0
LayerCount: 2
Fore
SplineSet
181 1456 m 257
 181 0 l 257
 1145 0 l 257
 1161 211 l 257
 505 211 l 257
 505 1456 l 257
 181 1456 l 257
EndSplineSet
EndChar

StartChar: M
Encoding: 45 77 69
Width: 1878
VWidth: 0
GlyphClass: 2
Flags: W
PickledData: "(dp1
S'org.pippin.gimp.org.kernagic'
p2
(dp3
S'lstem'
p4
I0
sS'rstem'
p5
I0
ssS'org.robofab.postScriptHintData'
p6
(dp7
sS'com.typemytype.robofont.guides'
p8
((dp9
S'y'
I378
sS'x'
I548
sS'magnetic'
p10
I5
sS'angle'
p11
I0
sS'isGlobal'
p12
I00
stp13
sS'com.typemytype.robofont.layerData'
p14
(dp15
sS'com.fontlab.hintData'
p16
(dp17
S'vhints'
p18
((dp19
S'position'
p20
I185
sS'width'
p21
I166
s(dp22
g20
I214
sg21
I151
s(dp23
g20
I332
sg21
I33
s(dp24
g20
I1463
sg21
I149
s(dp25
g20
I1463
sg21
I39
s(dp26
g20
I1477
sg21
I164
stp27
ss."
VStem: 185 166 214 151 332 33 1463 149 1463 39 1477 164
AnchorPoint: "top" 944 1456 basechar 0
LayerCount: 2
Fore
SplineSet
162 -4 m 257
 465 -4 l 257
 465 532 l 257
 474 987 l 257
 832 218 l 257
 1039 218 l 257
 1403 983 l 257
 1411 535 l 257
 1411 -4 l 257
 1716 -4 l 257
 1716 580 l 257
 1693 1456 l 257
 1361 1456 l 257
 943 584 l 257
 524 1456 l 257
 185 1456 l 257
 162 574 l 257
 162 -4 l 257
EndSplineSet
EndChar

StartChar: N
Encoding: 46 78 70
Width: 1603
VWidth: 0
GlyphClass: 2
Flags: W
PickledData: "(dp1
S'org.pippin.gimp.org.kernagic'
p2
(dp3
S'lstem'
p4
I0
sS'rstem'
p5
I0
ssS'com.typemytype.robofont.layerData'
p6
(dp7
sS'org.robofab.postScriptHintData'
p8
(dp9
s."
AnchorPoint: "bot" 777 0 basechar 0
AnchorPoint: "top" 770 1456 basechar 0
LayerCount: 2
Fore
SplineSet
1121 1456 m 257
 1121 832 l 257
 1136 443 l 257
 490 1456 l 257
 181 1456 l 257
 181 0 l 257
 489 0 l 257
 489 593 l 257
 472 981 l 257
 1101 0 l 257
 1422 0 l 257
 1422 1456 l 257
 1121 1456 l 257
EndSplineSet
EndChar

StartChar: O
Encoding: 47 79 76
Width: 1649
VWidth: 0
GlyphClass: 2
Flags: W
PickledData: "(dp1
S'org.pippin.gimp.org.kernagic'
p2
(dp3
S'lstem'
p4
I0
sS'rstem'
p5
I0
ssS'org.robofab.postScriptHintData'
p6
(dp7
sS'com.typemytype.robofont.guides'
p8
(tsS'com.typemytype.robofont.layerData'
p9
(dp10
sS'com.fontlab.hintData'
p11
(dp12
S'vhints'
p13
((dp14
S'position'
p15
I150
sS'width'
p16
I122
s(dp17
g15
I1390
sg16
I122
stp18
sS'hhints'
p19
((dp20
g15
I-19
sg16
I96
s(dp21
g15
I1372
sg16
I96
stp22
ss."
HStem: -19 96 1372 96
VStem: 150 122 1390 122
AnchorPoint: "top" 819 1456 basechar 0
LayerCount: 2
Fore
SplineSet
1177 721 m 256
 1177 405 1068 215 826 215 c 256
 584 215 472 404 472 721 c 256
 472 1042 588 1239 826 1239 c 256
 1067 1239 1177 1041 1177 721 c 256
128 722 m 256
 128 253 373 -21 826 -21 c 256
 1280 -21 1521 254 1521 723 c 256
 1521 1194 1275 1476 826 1476 c 256
 375 1476 128 1195 128 722 c 256
EndSplineSet
Substitution2: "Single Substitution lookup 4 subtable" ordmasculine
EndChar

StartChar: OE
Encoding: 273 338 77
Width: 2269
VWidth: 0
GlyphClass: 2
Flags: W
PickledData: "(dp1
S'org.pippin.gimp.org.kernagic'
p2
(dp3
S'lstem'
p4
I0
sS'rstem'
p5
I0
ssS'com.typemytype.robofont.layerData'
p6
(dp7
S'b'
(dp8
S'name'
p9
S'OE'
p10
sS'lib'
p11
(dp12
sS'unicodes'
p13
(tsS'width'
p14
I2367
sS'contours'
p15
(tsS'components'
p16
(tsS'anchors'
p17
(tsssS'org.robofab.postScriptHintData'
p18
(dp19
s."
LayerCount: 2
Fore
SplineSet
1141 725 m 256
 1141 411 1030 211 761 211 c 256
 492 211 377 411 377 725 c 256
 377 1049 496 1253 761 1253 c 256
 1028 1253 1141 1048 1141 725 c 256
92 726 m 256
 92 254 330 -17 761 -17 c 256
 934 -17 1053 22 1142 97 c 257
 1142 0 l 257
 2123 0 l 257
 2129 218 l 257
 1407 218 l 257
 1407 641 l 257
 2064 641 l 257
 2064 854 l 257
 1407 854 l 257
 1407 1244 l 257
 2096 1244 l 257
 2111 1456 l 257
 1142 1456 l 257
 1142 1364 l 257
 1052 1441 935 1481 761 1481 c 256
 333 1481 92 1208 92 726 c 256
EndSplineSet
EndChar

StartChar: Oslash
Encoding: 151 216 85
Width: 1651
VWidth: 0
GlyphClass: 2
Flags: W
PickledData: "(dp1
S'org.pippin.gimp.org.kernagic'
p2
(dp3
S'lstem'
p4
I0
sS'rstem'
p5
I0
ssS'com.typemytype.robofont.layerData'
p6
(dp7
sS'org.robofab.postScriptHintData'
p8
(dp9
s."
AnchorPoint: "top" 826 1456 basechar 0
LayerCount: 2
Fore
SplineSet
826 215 m 256
 788 215 753 220 721 230 c 257
 1065 1128 l 257
 1142 1041 1177 900 1177 721 c 256
 1177 405 1068 215 826 215 c 256
603 309 m 257
 512 390 472 535 472 721 c 256
 472 1042 588 1239 826 1239 c 256
 871 1239 912 1232 948 1219 c 257
 603 309 l 257
535 -255 m 257
 631 -2 l 257
 692 -15 757 -21 826 -21 c 256
 1280 -21 1521 254 1521 723 c 256
 1521 1054 1399 1292 1171 1404 c 257
 1271 1667 l 257
 1137 1719 l 257
 1036 1451 l 257
 972 1468 902 1476 826 1476 c 256
 375 1476 128 1195 128 722 c 256
 128 382 256 144 500 39 c 257
 407 -208 l 257
 535 -255 l 257
EndSplineSet
EndChar

StartChar: P
Encoding: 48 80 88
Width: 1412
VWidth: 0
GlyphClass: 2
Flags: W
PickledData: "(dp1
S'org.pippin.gimp.org.kernagic'
p2
(dp3
S'lstem'
p4
I0
sS'rstem'
p5
I807
ssS'com.typemytype.robofont.layerData'
p6
(dp7
sS'org.robofab.postScriptHintData'
p8
(dp9
s."
AnchorPoint: "top" 720 1456 basechar 0
LayerCount: 2
Fore
SplineSet
181 1448 m 257
 181 0 l 257
 505 0 l 257
 505 538 l 257
 563 534 617 533 667 533 c 256
 1183 533 1335 722 1335 1024 c 256
 1335 1325 1164 1467 596 1467 c 256
 476 1467 338 1461 181 1448 c 257
505 751 m 257
 505 1252 l 257
 553 1255 596 1257 636 1257 c 256
 971 1257 1027 1156 1027 1011 c 256
 1027 857 960 746 631 746 c 256
 593 746 551 748 505 751 c 257
EndSplineSet
EndChar

StartChar: Q
Encoding: 49 81 89
Width: 1643
VWidth: 0
GlyphClass: 2
Flags: W
PickledData: "(dp1
S'org.pippin.gimp.org.kernagic'
p2
(dp3
S'lstem'
p4
I0
sS'rstem'
p5
I0
ssS'com.typemytype.robofont.layerData'
p6
(dp7
sS'org.robofab.postScriptHintData'
p8
(dp9
s."
LayerCount: 2
Fore
SplineSet
771 72 m 257
 794 -2 1103 -410 1222 -508 c 257
 1426 -341 l 257
 1311 -243 1123 5 1057 109 c 257
 771 72 l 257
EndSplineSet
Refer: 76 79 N 1 0 0 1 0 0 2
EndChar

StartChar: R
Encoding: 50 82 90
Width: 1448
VWidth: 0
GlyphClass: 2
Flags: W
PickledData: "(dp1
S'org.pippin.gimp.org.kernagic'
p2
(dp3
S'lstem'
p4
I0
sS'rstem'
p5
I839
ssS'com.fontlab.hintData'
p6
(dp7
S'vhints'
p8
((dp9
S'position'
p10
I1122
sS'width'
p11
I117
stp12
sS'hhints'
p13
((dp14
g10
I722
sg11
I96
s(dp15
g10
I1355
sg11
I94
stp16
ssS'com.typemytype.robofont.layerData'
p17
(dp18
sS'org.robofab.postScriptHintData'
p19
(dp20
s."
HStem: 722 96 1355 94
VStem: 1122 117
AnchorPoint: "bot" 739 0 basechar 0
AnchorPoint: "top" 743 1456 basechar 0
LayerCount: 2
Fore
SplineSet
181 0 m 257
 505 0 l 257
 505 623 l 257
 722 623 l 257
 1039 0 l 257
 1391 0 l 257
 1391 17 l 257
 1045 666 l 257
 1190 710 1325 806 1325 1046 c 256
 1325 1373 1155 1475 702 1475 c 256
 558 1475 386 1465 181 1448 c 257
 181 0 l 257
505 1243 m 257
 587 1250 659 1254 722 1254 c 256
 931 1254 1029 1207 1029 1049 c 256
 1029 880 953 822 720 822 c 258
 505 822 l 257
 505 1243 l 257
EndSplineSet
EndChar

StartChar: S
Encoding: 51 83 94
Width: 1226
VWidth: 0
GlyphClass: 2
Flags: W
PickledData: "(dp1
S'org.pippin.gimp.org.kernagic'
p2
(dp3
S'lstem'
p4
I185
sS'rstem'
p5
I826
ssS'com.typemytype.robofont.guides'
p6
((dp7
S'y'
I973
sS'x'
I1035
sS'magnetic'
p8
I5
sS'angle'
p9
F90
sS'isGlobal'
p10
I00
s(dp11
S'y'
I382
sS'x'
I75
sg8
I5
sg9
F90
sg10
I00
stp12
sS'com.typemytype.robofont.layerData'
p13
(dp14
sS'org.robofab.postScriptHintData'
p15
(dp16
s."
AnchorPoint: "bot" 610 0 basechar 0
AnchorPoint: "top" 619 1463 basechar 0
LayerCount: 2
Fore
SplineSet
608 1476 m 256
 337 1476 98 1366 98 1061 c 256
 98 843 208 759 381 688 c 258
 599 599 l 258
 773 527 809 485 809 385 c 256
 809 261 719 214 597 214 c 256
 487 214 371 287 305 365 c 257
 279 365 l 257
 87 216 l 257
 165 103 335 -20 609 -20 c 256
 898 -20 1133 115 1133 407 c 256
 1133 666 1001 751 784 837 c 257
 603 910 l 258
 463 966 417 999 417 1093 c 256
 417 1214 515 1257 623 1257 c 256
 715 1257 821 1208 872 1112 c 257
 893 1112 l 257
 1099 1231 l 257
 1038 1349 871 1476 608 1476 c 256
EndSplineSet
EndChar

StartChar: T
Encoding: 52 84 100
Width: 1241
VWidth: 0
GlyphClass: 2
Flags: W
PickledData: "(dp1
S'org.pippin.gimp.org.kernagic'
p2
(dp3
S'lstem'
p4
I285
sS'rstem'
p5
I844
ssS'com.typemytype.robofont.layerData'
p6
(dp7
sS'org.robofab.postScriptHintData'
p8
(dp9
s."
AnchorPoint: "bot" 626 0 basechar 0
AnchorPoint: "top" 626 1456 basechar 0
LayerCount: 2
Fore
SplineSet
31 1456 m 257
 31 1245 l 257
 458 1245 l 257
 458 -4 l 257
 782 -4 l 257
 782 1245 l 257
 1209 1245 l 257
 1209 1456 l 257
 31 1456 l 257
EndSplineSet
EndChar

StartChar: Thorn
Encoding: 157 222 105
Width: 1379
VWidth: 0
GlyphClass: 2
Flags: W
PickledData: "(dp1
S'org.pippin.gimp.org.kernagic'
p2
(dp3
S'lstem'
p4
I0
sS'rstem'
p5
I0
ssS'com.typemytype.robofont.layerData'
p6
(dp7
S'b'
(dp8
S'name'
p9
S'Thorn'
p10
sS'lib'
p11
(dp12
sS'unicodes'
p13
(tsS'width'
p14
I1192
sS'contours'
p15
(tsS'components'
p16
(tsS'anchors'
p17
(tsssS'org.robofab.postScriptHintData'
p18
(dp19
s."
LayerCount: 2
Fore
SplineSet
176 0 m 257
 501 0 l 257
 501 359 l 257
 652 359 l 258
 1117 359 1276 527 1276 832 c 256
 1276 1126 1088 1246 619 1246 c 258
 501 1246 l 257
 501 1469 l 257
 176 1469 l 257
 176 0 l 257
501 1037 m 257
 634 1037 l 257
 639 1037 l 258
 899 1037 962 961 962 818 c 256
 962 665 892 572 612 572 c 258
 501 572 l 257
 501 1037 l 257
EndSplineSet
EndChar

StartChar: U
Encoding: 53 85 106
Width: 1506
VWidth: 0
GlyphClass: 2
Flags: W
PickledData: "(dp1
S'org.pippin.gimp.org.kernagic'
p2
(dp3
S'lstem'
p4
I0
sS'rstem'
p5
I0
ssS'com.typemytype.robofont.layerData'
p6
(dp7
sS'org.robofab.postScriptHintData'
p8
(dp9
s."
AnchorPoint: "bot" 761 0 basechar 0
AnchorPoint: "top" 756 1456 basechar 0
LayerCount: 2
Fore
SplineSet
1029 1456 m 257
 1029 554 l 258
 1029 322 937 216 749 216 c 256
 563 216 475 321 475 553 c 258
 475 1456 l 257
 151 1456 l 257
 151 536 l 258
 151 193 348 -20 749 -20 c 256
 1149 -20 1353 196 1353 535 c 258
 1353 1456 l 257
 1029 1456 l 257
EndSplineSet
EndChar

StartChar: V
Encoding: 54 86 117
Width: 1398
VWidth: 0
GlyphClass: 2
Flags: W
PickledData: "(dp1
S'org.pippin.gimp.org.kernagic'
p2
(dp3
S'lstem'
p4
I0
sS'rstem'
p5
I0
ssS'com.typemytype.robofont.layerData'
p6
(dp7
sS'org.robofab.postScriptHintData'
p8
(dp9
s."
LayerCount: 2
Fore
SplineSet
507 -4 m 257
 861 -4 l 257
 1370 1456 l 257
 1052 1456 l 257
 760 525 l 257
 692 283 l 257
 582 680 461 1065 345 1456 c 257
 28 1456 l 257
 507 -4 l 257
EndSplineSet
EndChar

StartChar: W
Encoding: 55 87 118
Width: 2027
VWidth: 0
GlyphClass: 2
Flags: W
PickledData: "(dp1
S'org.pippin.gimp.org.kernagic'
p2
(dp3
S'lstem'
p4
I0
sS'rstem'
p5
I0
ssS'com.typemytype.robofont.layerData'
p6
(dp7
sS'org.robofab.postScriptHintData'
p8
(dp9
s."
AnchorPoint: "bot" 1002 0 basechar 0
AnchorPoint: "top" 1020 1456 basechar 0
LayerCount: 2
Fore
SplineSet
1012 1040 m 257
 1294 0 l 257
 1591 0 l 257
 1969 1456 l 257
 1656 1456 l 257
 1431 417 l 257
 1144 1443 l 257
 878 1443 l 257
 592 423 l 257
 366 1456 l 257
 57 1456 l 257
 418 0 l 257
 715 0 l 257
 1012 1040 l 257
EndSplineSet
EndChar

StartChar: X
Encoding: 56 88 123
Width: 1382
VWidth: 0
GlyphClass: 2
Flags: W
PickledData: "(dp1
S'org.pippin.gimp.org.kernagic'
p2
(dp3
S'lstem'
p4
I0
sS'rstem'
p5
I0
ssS'com.typemytype.robofont.layerData'
p6
(dp7
sS'org.robofab.postScriptHintData'
p8
(dp9
s."
LayerCount: 2
Fore
SplineSet
880 736 m 257
 1353 1456 l 257
 1005 1456 l 257
 711 990 l 257
 401 1456 l 257
 46 1456 l 257
 510 759 l 257
 7 -4 l 257
 342 -4 l 257
 679 504 l 257
 1017 -4 l 257
 1372 -4 l 257
 880 736 l 257
EndSplineSet
EndChar

StartChar: Y
Encoding: 57 89 124
Width: 1353
VWidth: 0
GlyphClass: 2
Flags: W
PickledData: "(dp1
S'org.pippin.gimp.org.kernagic'
p2
(dp3
S'lstem'
p4
I0
sS'rstem'
p5
I0
ssS'com.typemytype.robofont.layerData'
p6
(dp7
sS'org.robofab.postScriptHintData'
p8
(dp9
s."
AnchorPoint: "top" 679 1456 basechar 0
LayerCount: 2
Fore
SplineSet
838 556 m 257
 1330 1456 l 257
 992 1456 l 257
 675 853 l 257
 358 1456 l 257
 23 1456 l 257
 514 554 l 257
 514 0 l 257
 838 0 l 257
 838 556 l 257
EndSplineSet
EndChar

StartChar: Z
Encoding: 58 90 129
Width: 1243
VWidth: 0
GlyphClass: 2
Flags: W
PickledData: "(dp1
S'org.pippin.gimp.org.kernagic'
p2
(dp3
S'lstem'
p4
I0
sS'rstem'
p5
I0
ssS'com.typemytype.robofont.layerData'
p6
(dp7
sS'org.robofab.postScriptHintData'
p8
(dp9
s."
AnchorPoint: "bot" 613 0 basechar 0
AnchorPoint: "top" 648 1456 basechar 0
LayerCount: 2
Fore
SplineSet
103 0 m 257
 1168 0 l 257
 1160 211 l 257
 484 211 l 257
 1146 1267 l 257
 1144 1456 l 257
 118 1456 l 257
 130 1244 l 257
 794 1244 l 257
 103 178 l 257
 103 0 l 257
EndSplineSet
EndChar

StartChar: a
Encoding: 65 97 133
Width: 1149
VWidth: 0
GlyphClass: 2
Flags: W
PickledData: "(dp1
S'org.pippin.gimp.org.kernagic'
p2
(dp3
S'lstem'
p4
I0
sS'rstem'
p5
I0
ssS'org.robofab.postScriptHintData'
p6
(dp7
sS'com.typemytype.robofont.guides'
p8
(tsS'com.typemytype.robofont.layerData'
p9
(dp10
sS'com.fontlab.hintData'
p11
(dp12
S'vhints'
p13
((dp14
S'position'
p15
I126
sS'width'
p16
I120
s(dp17
g15
I842
sg16
I32
s(dp18
g15
I875
sg16
I86
stp19
sS'hhints'
p20
((dp21
g15
I-15
sg16
I92
s(dp22
g15
I535
sg16
I82
s(dp23
g15
I983
sg16
I92
stp24
ss."
HStem: -15 92 535 82 983 92
VStem: 126 120 842 32 875 86
AnchorPoint: "bot" 592 0 basechar 0
AnchorPoint: "top" 561 1082 basechar 0
LayerCount: 2
Fore
SplineSet
729 252 m 257
 687 206 621 157 510 157 c 256
 437 157 367 201 367 305 c 256
 367 428 466 470 620 470 c 258
 729 470 l 257
 729 252 l 257
428 -17 m 256
 591 -17 691 40 769 122 c 257
 799 0 l 257
 1029 0 l 257
 1029 655 l 258
 1029 976 837 1102 583 1102 c 256
 435 1102 273 1062 132 988 c 257
 194 798 l 257
 310 853 440 887 538 887 c 256
 659 887 730 835 730 705 c 258
 730 617 l 257
 560 618 l 257
 551 618 l 258
 310 618 93 536 93 302 c 256
 93 90 231 -17 428 -17 c 256
EndSplineSet
Substitution2: "Single Substitution lookup 3 subtable" ordfeminine
EndChar

StartChar: acute
Encoding: 115 180 137
Width: 776
VWidth: 0
GlyphClass: 4
Flags: W
PickledData: "(dp1
S'org.robofab.postScriptHintData'
p2
(dp3
sS'com.typemytype.robofont.layerData'
p4
(dp5
s."
AnchorPoint: "top" 456 1082 mark 0
LayerCount: 2
Fore
SplineSet
364 1208 m 257
 539 1208 l 257
 866 1606 l 257
 546 1606 l 257
 364 1208 l 257
EndSplineSet
EndChar

StartChar: ae
Encoding: 165 230 139
Width: 1724
VWidth: 0
GlyphClass: 2
Flags: W
PickledData: "(dp1
S'org.pippin.gimp.org.kernagic'
p2
(dp3
S'lstem'
p4
I0
sS'rstem'
p5
I0
ssS'com.fontlab.hintData'
p6
(dp7
S'vhints'
p8
((dp9
S'position'
p10
I126
sS'width'
p11
I119
s(dp12
g10
I817
sg11
I117
s(dp13
g10
I817
sg11
I82
s(dp14
g10
I1556
sg11
I98
stp15
sS'hhints'
p16
((dp17
g10
I-14
sg11
I98
s(dp18
g10
I518
sg11
I82
s(dp19
g10
I983
sg11
I92
stp20
ssS'com.typemytype.robofont.layerData'
p21
(dp22
sS'org.robofab.postScriptHintData'
p23
(dp24
s."
HStem: -14 98 518 82 983 92
VStem: 126 119 817 117 817 82 1556 98
AnchorPoint: "top" 1112 1082 basechar 0
LayerCount: 2
Fore
SplineSet
985 613 m 257
 997 824 1116 909 1242 909 c 256
 1392 909 1435 835 1435 758 c 256
 1435 678 1398 611 1089 611 c 256
 1057 611 1023 612 985 613 c 257
746 304 m 257
 728 231 639 156 491 156 c 256
 419 156 341 198 341 305 c 256
 341 427 431 480 585 480 c 256
 600 480 690 479 718 475 c 257
 718 454 733 331 746 304 c 257
1646 735 m 256
 1646 905 1530 1102 1236 1102 c 256
 1067 1102 953 1037 881 923 c 257
 843 1040 724 1101 556 1101 c 256
 399 1101 247 1056 99 976 c 257
 167 795 l 257
 290 854 417 886 514 886 c 256
 635 886 716 837 716 704 c 258
 716 623 l 257
 686 627 543 629 526 629 c 256
 281 629 66 539 66 302 c 256
 66 87 203 -14 405 -17 c 256
 590 -17 747 38 833 159 c 257
 907 55 1015 -20 1230 -20 c 256
 1404 -20 1557 32 1642 106 c 257
 1586 276 l 257
 1501 224 1399 180 1265 180 c 256
 1132 180 1005 221 983 442 c 257
 1014 441 1044 441 1073 441 c 256
 1411 441 1646 494 1646 735 c 256
EndSplineSet
EndChar

StartChar: ampersand
Encoding: 6 38 144
Width: 1420
VWidth: 0
GlyphClass: 2
Flags: W
PickledData: "(dp1
S'org.pippin.gimp.org.kernagic'
p2
(dp3
S'lstem'
p4
I0
sS'rstem'
p5
I0
ssS'com.fontlab.hintData'
p6
(dp7
S'vhints'
p8
((dp9
S'position'
p10
I135
sS'width'
p11
I121
s(dp12
g10
I312
sg11
I105
s(dp13
g10
I917
sg11
I110
stp14
sS'hhints'
p15
((dp16
g10
I-19
sg11
I96
s(dp17
g10
I1372
sg11
I96
stp18
ssS'com.typemytype.robofont.layerData'
p19
(dp20
sS'org.robofab.postScriptHintData'
p21
(dp22
s."
HStem: -19 96 1372 96
VStem: 135 121 312 105 917 110
LayerCount: 2
Fore
SplineSet
632 1345 m 256
 727 1345 790 1304 790 1205 c 256
 790 1101 687 995 585 943 c 257
 495 1048 470 1109 470 1201 c 256
 470 1301 541 1345 632 1345 c 256
95 436 m 256
 95 133 297 -17 594 -17 c 256
 773 -17 912 49 1025 146 c 257
 1191 -33 l 257
 1351 103 l 257
 1168 300 l 257
 1260 419 1331 552 1397 666 c 257
 1239 775 l 257
 1171 645 1104 534 1035 443 c 257
 688 816 l 257
 855 904 1017 1044 1017 1210 c 256
 1017 1431 820 1522 635 1522 c 256
 430 1522 235 1406 235 1177 c 256
 235 1044 333 915 402 844 c 257
 260 757 95 638 95 436 c 256
892 290 m 257
 803 215 709 175 604 175 c 256
 448 175 336 257 336 416 c 256
 336 554 460 661 520 693 c 257
 892 290 l 257
EndSplineSet
EndChar

StartChar: uni02BC
Encoding: 65538 700 146
Width: 648
VWidth: 0
Flags: W
PickledData: "(dp1
S'org.robofab.postScriptHintData'
p2
(dp3
sS'com.typemytype.robofont.layerData'
p4
(dp5
s."
LayerCount: 2
Fore
SplineSet
68 1111 m 257
 283 1111 l 257
 283 1111 354 1413 383 1571 c 257
 123 1571 l 257
 115 1491 68 1111 68 1111 c 257
EndSplineSet
EndChar

StartChar: approxequal
Encoding: 477 8776 147
Width: 1255
VWidth: 0
GlyphClass: 2
Flags: W
PickledData: "(dp1
S'org.pippin.gimp.org.kernagic'
p2
(dp3
S'lstem'
p4
I0
sS'rstem'
p5
I0
ssS'com.typemytype.robofont.layerData'
p6
(dp7
S'b'
(dp8
S'name'
p9
S'approxequal'
p10
sS'lib'
p11
(dp12
sS'unicodes'
p13
(tsS'width'
p14
I1136
sS'contours'
p15
(tsS'components'
p16
(tsS'anchors'
p17
(tsssS'org.robofab.postScriptHintData'
p18
(dp19
s."
LayerCount: 2
Fore
SplineSet
216 346 m 257
 244 447 297 509 383 509 c 256
 440 509 496 479 550 452 c 256
 680 382 762 348 858 348 c 256
 1034 348 1102 455 1144 612 c 257
 1028 687 l 257
 985 573 919 529 853 529 c 256
 796 529 729 562 650 603 c 256
 542 661 478 691 385 691 c 256
 221 691 125 584 90 424 c 257
 216 346 l 257
216 746 m 257
 244 845 297 909 381 909 c 256
 439 909 495 878 550 851 c 256
 680 781 762 747 858 747 c 256
 1034 747 1102 854 1144 1011 c 257
 1028 1086 l 257
 985 972 919 929 853 929 c 256
 796 929 729 961 650 1002 c 256
 542 1060 478 1090 385 1090 c 256
 221 1090 125 983 90 824 c 257
 216 746 l 257
EndSplineSet
EndChar

StartChar: asciicircum
Encoding: 62 94 150
Width: 1440
VWidth: 0
GlyphClass: 2
Flags: W
PickledData: "(dp1
S'org.pippin.gimp.org.kernagic'
p2
(dp3
S'lstem'
p4
I0
sS'rstem'
p5
I0
ssS'com.typemytype.robofont.layerData'
p6
(dp7
sS'org.robofab.postScriptHintData'
p8
(dp9
s."
LayerCount: 2
Fore
SplineSet
641 1456 m 257
 103 280 l 257
 405 280 l 257
 713 994 l 257
 1034 280 l 257
 1336 280 l 257
 774 1456 l 257
 641 1456 l 257
EndSplineSet
EndChar

StartChar: asciitilde
Encoding: 94 126 151
Width: 1192
VWidth: 0
GlyphClass: 2
Flags: W
PickledData: "(dp1
S'org.pippin.gimp.org.kernagic'
p2
(dp3
S'lstem'
p4
I0
sS'rstem'
p5
I0
ssS'com.typemytype.robofont.layerData'
p6
(dp7
S'b'
(dp8
S'name'
p9
S'asciitilde'
p10
sS'lib'
p11
(dp12
sS'unicodes'
p13
(tsS'width'
p14
I1192
sS'contours'
p15
(tsS'components'
p16
(tsS'anchors'
p17
(tsssS'org.robofab.postScriptHintData'
p18
(dp19
s."
LayerCount: 2
Fore
SplineSet
171 476 m 257
 211 552 277 621 362 621 c 256
 432 621 491 594 569 557 c 256
 658 516 730 487 819 487 c 256
 959 487 1073 579 1124 685 c 257
 1046 819 l 257
 975 728 907 682 832 682 c 256
 778 682 708 709 621 749 c 256
 535 787 454 814 371 814 c 256
 226 814 140 725 90 618 c 257
 171 476 l 257
EndSplineSet
EndChar

StartChar: asterisk
Encoding: 10 42 152
Width: 1017
VWidth: 0
GlyphClass: 2
Flags: W
PickledData: "(dp1
S'org.pippin.gimp.org.kernagic'
p2
(dp3
S'lstem'
p4
I0
sS'rstem'
p5
I0
ssS'com.typemytype.robofont.layerData'
p6
(dp7
sS'org.robofab.postScriptHintData'
p8
(dp9
s."
LayerCount: 2
Fore
SplineSet
339 510 m 257
 509 844 l 257
 688 508 l 257
 702 518 874 617 887 626 c 257
 864 659 690 888 648 944 c 257
 995 1023 l 257
 931 1247 l 257
 591 1102 l 257
 625 1503 l 257
 397 1503 l 257
 431 1102 l 257
 94 1247 l 257
 30 1023 l 257
 374 944 l 257
 135 626 l 257
 339 510 l 257
EndSplineSet
EndChar

StartChar: at
Encoding: 32 64 153
Width: 2000
VWidth: 0
GlyphClass: 2
Flags: W
PickledData: "(dp1
S'org.pippin.gimp.org.kernagic'
p2
(dp3
S'lstem'
p4
I0
sS'rstem'
p5
I0
ssS'com.typemytype.robofont.layerData'
p6
(dp7
sS'org.robofab.postScriptHintData'
p8
(dp9
s."
LayerCount: 2
Fore
SplineSet
803 619 m 256
 803 825 909 1006 1080 1006 c 256
 1108 1006 1158 1000 1195 993 c 257
 1156 751 l 257
 1123 526 1070 416 940 416 c 256
 850 416 803 485 803 619 c 256
988 -146 m 256
 1195 -146 1411 -96 1542 2 c 257
 1484 148 l 257
 1346 67 1166 35 991 35 c 256
 600 35 378 309 378 670 c 256
 378 1043 626 1374 1049 1374 c 256
 1465 1374 1658 1111 1658 821 c 256
 1658 553 1550 421 1452 421 c 256
 1396 421 1357 468 1357 545 c 256
 1357 673 1396 868 1424 1081 c 257
 1348 1121 1199 1166 1064 1166 c 256
 753 1166 581 893 581 631 c 256
 581 422 689 252 923 252 c 256
 1057 252 1160 349 1210 483 c 257
 1238 342 1386 320 1452 260 c 257
 1644 260 1867 447 1867 813 c 256
 1867 1262 1511 1558 1056 1558 c 256
 533 1558 150 1172 150 674 c 256
 150 156 492 -146 988 -146 c 256
EndSplineSet
EndChar

StartChar: b
Encoding: 66 98 155
Width: 1251
VWidth: 0
GlyphClass: 2
Flags: W
PickledData: "(dp1
S'org.pippin.gimp.org.kernagic'
p2
(dp3
S'lstem'
p4
I0
sS'rstem'
p5
I0
ssS'org.robofab.postScriptHintData'
p6
(dp7
sS'com.typemytype.robofont.guides'
p8
(tsS'com.typemytype.robofont.layerData'
p9
(dp10
sS'com.fontlab.hintData'
p11
(dp12
S'vhints'
p13
((dp14
S'position'
p15
I193
sS'width'
p16
I125
s(dp17
g15
I193
sg16
I94
s(dp18
g15
I1018
sg16
I122
stp19
sS'hhints'
p20
((dp21
g15
I-19
sg16
I92
s(dp22
g15
I982
sg16
I92
stp23
ss."
HStem: -19 92 982 92
VStem: 193 125 193 94 1018 122
AnchorPoint: "top" 740 1082 basechar 0
LayerCount: 2
Fore
SplineSet
651 180 m 256
 543 180 483 220 440 278 c 257
 440 563 l 258
 440 811 534 902 667 902 c 256
 789 902 852 802 852 547 c 256
 852 293 772 180 651 180 c 256
733 1103 m 256
 586 1103 488 1032 432 918 c 257
 442 1137 l 257
 442 1560 l 257
 139 1540 l 257
 139 0 l 257
 406 0 l 257
 416 130 l 257
 467 54 563 -20 713 -20 c 256
 1009 -20 1162 213 1162 547 c 256
 1162 864 1023 1103 733 1103 c 256
EndSplineSet
EndChar

StartChar: backslash
Encoding: 60 92 156
Width: 937
VWidth: 0
GlyphClass: 2
Flags: W
PickledData: "(dp1
S'org.pippin.gimp.org.kernagic'
p2
(dp3
S'lstem'
p4
I0
sS'rstem'
p5
I0
ssS'com.typemytype.robofont.layerData'
p6
(dp7
S'b'
(dp8
S'name'
p9
S'backslash'
p10
sS'lib'
p11
(dp12
sS'unicodes'
p13
(tsS'width'
p14
I937
sS'contours'
p15
(tsS'components'
p16
(tsS'anchors'
p17
(tsssS'org.robofab.postScriptHintData'
p18
(dp19
s."
LayerCount: 2
Fore
SplineSet
588 8 m 257
 809 8 l 257
 319 1499 l 257
 94 1499 l 257
 588 8 l 257
EndSplineSet
EndChar

StartChar: bar
Encoding: 92 124 157
Width: 723
VWidth: 0
GlyphClass: 2
Flags: W
PickledData: "(dp1
S'org.pippin.gimp.org.kernagic'
p2
(dp3
S'lstem'
p4
I0
sS'rstem'
p5
I0
ssS'com.typemytype.robofont.layerData'
p6
(dp7
S'b'
(dp8
S'name'
p9
S'bar'
p10
sS'lib'
p11
(dp12
sS'unicodes'
p13
(tsS'width'
p14
I681
sS'contours'
p15
(tsS'components'
p16
(tsS'anchors'
p17
(tsssS'org.robofab.postScriptHintData'
p18
(dp19
s."
LayerCount: 2
Fore
SplineSet
269 1476 m 257
 269 -439 l 257
 459 -439 l 257
 459 1476 l 257
 269 1476 l 257
EndSplineSet
EndChar

StartChar: braceleft
Encoding: 91 123 158
Width: 931
VWidth: 0
GlyphClass: 2
Flags: W
PickledData: "(dp1
S'org.pippin.gimp.org.kernagic'
p2
(dp3
S'lstem'
p4
I0
sS'rstem'
p5
I0
ssS'com.typemytype.robofont.layerData'
p6
(dp7
sS'org.robofab.postScriptHintData'
p8
(dp9
s."
LayerCount: 2
Fore
SplineSet
800 -301 m 257
 800 -130 l 257
 667 -128 624 -112 624 45 c 258
 624 357 l 258
 624 485 600 597 425 630 c 257
 600 664 624 776 624 903 c 258
 624 1216 l 258
 624 1373 667 1389 800 1392 c 257
 800 1563 l 257
 575 1563 401 1530 401 1274 c 258
 401 950 l 258
 401 813 394 727 189 727 c 257
 189 534 l 257
 395 534 401 447 401 311 c 258
 401 -13 l 258
 401 -268 575 -301 800 -301 c 257
EndSplineSet
EndChar

StartChar: braceright
Encoding: 93 125 159
Width: 931
VWidth: 0
GlyphClass: 2
Flags: W
PickledData: "(dp1
S'org.pippin.gimp.org.kernagic'
p2
(dp3
S'lstem'
p4
I0
sS'rstem'
p5
I0
ssS'com.typemytype.robofont.layerData'
p6
(dp7
sS'org.robofab.postScriptHintData'
p8
(dp9
s."
LayerCount: 2
Fore
SplineSet
153 -301 m 257
 378 -301 552 -268 552 -13 c 258
 552 311 l 258
 552 447 558 534 764 534 c 257
 764 727 l 257
 559 727 552 813 552 950 c 258
 552 1274 l 258
 552 1530 378 1563 153 1563 c 257
 153 1392 l 257
 286 1389 329 1373 329 1216 c 258
 329 903 l 258
 329 776 353 664 528 630 c 257
 353 597 329 485 329 357 c 258
 329 45 l 258
 329 -112 286 -128 153 -130 c 257
 153 -301 l 257
EndSplineSet
EndChar

StartChar: bracketleft
Encoding: 59 91 160
Width: 823
VWidth: 0
GlyphClass: 2
Flags: W
PickledData: "(dp1
S'org.pippin.gimp.org.kernagic'
p2
(dp3
S'lstem'
p4
I0
sS'rstem'
p5
I0
ssS'com.typemytype.robofont.layerData'
p6
(dp7
sS'org.robofab.postScriptHintData'
p8
(dp9
s."
LayerCount: 2
Fore
SplineSet
224 -251 m 257
 676 -251 l 257
 676 -66 l 257
 453 -66 l 257
 453 1298 l 257
 676 1298 l 257
 676 1481 l 257
 224 1481 l 257
 224 -251 l 257
EndSplineSet
EndChar

StartChar: bracketright
Encoding: 61 93 161
Width: 965
VWidth: 0
GlyphClass: 2
Flags: W
PickledData: "(dp1
S'org.pippin.gimp.org.kernagic'
p2
(dp3
S'lstem'
p4
I0
sS'rstem'
p5
I0
ssS'com.typemytype.robofont.layerData'
p6
(dp7
sS'org.robofab.postScriptHintData'
p8
(dp9
s."
LayerCount: 2
Fore
SplineSet
294 -251 m 257
 746 -251 l 257
 746 1481 l 257
 294 1481 l 257
 294 1298 l 257
 516 1298 l 257
 516 -66 l 257
 294 -66 l 257
 294 -251 l 257
EndSplineSet
EndChar

StartChar: breve
Encoding: 401 728 162
Width: 918
VWidth: 0
GlyphClass: 4
Flags: W
PickledData: "(dp1
S'org.robofab.postScriptHintData'
p2
(dp3
sS'com.typemytype.robofont.layerData'
p4
(dp5
s."
AnchorPoint: "top" 441 1076 mark 0
LayerCount: 2
Fore
SplineSet
440 1311 m 256
 608 1311 721 1408 721 1576 c 257
 555 1576 l 257
 555 1509 504 1473 440 1473 c 256
 375 1473 326 1509 326 1576 c 257
 157 1576 l 257
 157 1408 270 1311 440 1311 c 256
EndSplineSet
EndChar

StartChar: uni0311
Encoding: 409 785 163
Width: 850
VWidth: 0
Flags: W
PickledData: "(dp1
S'org.robofab.postScriptHintData'
p2
(dp3
sS'com.typemytype.robofont.layerData'
p4
(dp5
s."
AnchorPoint: "top" 437 1076 mark 0
LayerCount: 2
Fore
SplineSet
151 1311 m 257
 320 1311 l 257
 320 1377 369 1414 434 1414 c 256
 498 1414 549 1377 549 1311 c 257
 715 1311 l 257
 715 1479 602 1576 434 1576 c 256
 264 1576 151 1479 151 1311 c 257
EndSplineSet
EndChar

StartChar: brokenbar
Encoding: 101 166 164
Width: 733
VWidth: 0
GlyphClass: 2
Flags: W
PickledData: "(dp1
S'org.pippin.gimp.org.kernagic'
p2
(dp3
S'lstem'
p4
I0
sS'rstem'
p5
I0
ssS'com.typemytype.robofont.layerData'
p6
(dp7
S'b'
(dp8
S'name'
p9
S'brokenbar'
p10
sS'lib'
p11
(dp12
sS'unicodes'
p13
(tsS'width'
p14
I653
sS'contours'
p15
(tsS'components'
p16
(tsS'anchors'
p17
(tsssS'org.robofab.postScriptHintData'
p18
(dp19
s."
LayerCount: 2
Fore
SplineSet
257 1479 m 257
 257 773 l 257
 455 773 l 257
 455 1479 l 257
 257 1479 l 257
257 367 m 257
 257 -341 l 257
 455 -341 l 257
 455 367 l 257
 257 367 l 257
EndSplineSet
EndChar

StartChar: bullet
Encoding: 454 8226 165
Width: 949
VWidth: 0
GlyphClass: 2
Flags: W
PickledData: "(dp1
S'org.pippin.gimp.org.kernagic'
p2
(dp3
S'lstem'
p4
I0
sS'rstem'
p5
I0
ssS'com.typemytype.robofont.layerData'
p6
(dp7
S'b'
(dp8
S'name'
p9
S'bullet'
p10
sS'lib'
p11
(dp12
sS'unicodes'
p13
(tsS'width'
p14
I908
sS'contours'
p15
(tsS'components'
p16
(tsS'anchors'
p17
(tsssS'org.robofab.postScriptHintData'
p18
(dp19
s."
LayerCount: 2
Fore
SplineSet
462 366 m 256
 655 366 810 511 810 712 c 256
 810 913 661 1053 469 1053 c 256
 276 1053 121 907 121 707 c 256
 121 507 269 366 462 366 c 256
EndSplineSet
EndChar

StartChar: c
Encoding: 67 99 166
Width: 1113
VWidth: 0
GlyphClass: 2
Flags: W
PickledData: "(dp1
S'org.pippin.gimp.org.kernagic'
p2
(dp3
S'lstem'
p4
I0
sS'rstem'
p5
I696
ssS'org.robofab.postScriptHintData'
p6
(dp7
sS'com.typemytype.robofont.guides'
p8
((dp9
S'y'
I417
sS'x'
I962
sS'magnetic'
p10
I5
sS'angle'
p11
F90
sS'isGlobal'
p12
I00
s(dp13
S'y'
I1020
sS'x'
I565
sg10
I5
sg11
F90
sg12
I00
s(dp14
S'y'
I994
sS'x'
I572
sg10
I5
sg11
F90
sg12
I00
stp15
sS'com.typemytype.robofont.layerData'
p16
(dp17
sS'com.fontlab.hintData'
p18
(dp19
S'vhints'
p20
((dp21
S'position'
p22
I128
sS'width'
p23
I120
stp24
sS'hhints'
p25
((dp26
g22
I-19
sg23
I92
s(dp27
g22
I982
sg23
I92
stp28
ss."
HStem: -19 92 982 92
VStem: 128 120
AnchorPoint: "bot" 620 0 basechar 0
AnchorPoint: "top" 620 1082 basechar 0
LayerCount: 2
Fore
SplineSet
851 333 m 257
 819 247 745 190 644 190 c 256
 504 190 396 304 396 542 c 256
 396 779 504 893 644 893 c 258
 646 893 l 258
 746 893 819 836 851 749 c 257
 864 749 l 257
 1050 851 l 257
 979 1012 849 1103 632 1103 c 256
 299 1103 89 887 89 542 c 256
 89 196 299 -20 632 -20 c 256
 849 -20 980 71 1050 232 c 257
 863 333 l 257
 851 333 l 257
EndSplineSet
EndChar

StartChar: caron
Encoding: 399 711 168
Width: 941
VWidth: 0
GlyphClass: 4
Flags: W
PickledData: "(dp1
S'org.robofab.postScriptHintData'
p2
(dp3
sS'com.typemytype.robofont.layerData'
p4
(dp5
s."
AnchorPoint: "top" 460 1082 mark 0
LayerCount: 2
Fore
SplineSet
309 1265 m 257
 580 1265 l 257
 788 1647 l 257
 551 1647 l 257
 446 1432 l 257
 339 1647 l 257
 101 1647 l 257
 309 1265 l 257
EndSplineSet
EndChar

StartChar: caron.alt
Encoding: 65539 -1 169
Width: 649
VWidth: 0
GlyphClass: 4
Flags: W
PickledData: "(dp1
S'org.robofab.postScriptHintData'
p2
(dp3
sS'com.typemytype.robofont.layerData'
p4
(dp5
s."
AnchorPoint: "caron.alt" 79 1082 mark 0
LayerCount: 2
Fore
SplineSet
377 1131 m 257
 556 1131 l 257
 627 1554 l 257
 391 1554 l 257
 377 1131 l 257
EndSplineSet
EndChar

StartChar: cedilla
Encoding: 119 184 174
Width: 737
VWidth: 0
GlyphClass: 4
Flags: W
PickledData: "(dp1
S'org.robofab.postScriptHintData'
p2
(dp3
sS'com.typemytype.robofont.layerData'
p4
(dp5
s."
AnchorPoint: "bot" 481 19 mark 0
LayerCount: 2
Fore
SplineSet
420 -414 m 256
 562 -414 674 -337 674 -205 c 256
 674 -95 604 -37 506 -37 c 256
 471 -37 432 -45 392 -60 c 257
 392 -126 l 257
 407 -124 421 -123 433 -123 c 256
 501 -123 525 -156 525 -198 c 256
 525 -251 479 -290 402 -290 c 256
 370 -290 333 -283 292 -268 c 257
 253 -378 l 257
 308 -402 365 -414 420 -414 c 256
EndSplineSet
EndChar

StartChar: cent
Encoding: 97 162 175
Width: 1113
VWidth: 0
GlyphClass: 2
Flags: W
PickledData: "(dp1
S'org.pippin.gimp.org.kernagic'
p2
(dp3
S'lstem'
p4
I0
sS'rstem'
p5
I0
ssS'com.typemytype.robofont.layerData'
p6
(dp7
sS'org.robofab.postScriptHintData'
p8
(dp9
s."
LayerCount: 2
Fore
SplineSet
556 49 m 257
 550 -301 l 257
 680 -301 l 257
 687 49 l 257
 556 49 l 257
560 1370 m 257
 556 1042 l 257
 684 1042 l 257
 698 1370 l 257
 560 1370 l 257
EndSplineSet
Refer: 166 99 N 1 0 0 1 0 0 2
EndChar

StartChar: circumflex
Encoding: 398 710 176
Width: 918
VWidth: 0
GlyphClass: 4
Flags: W
PickledData: "(dp1
S'org.robofab.postScriptHintData'
p2
(dp3
sS'com.typemytype.robofont.layerData'
p4
(dp5
s."
AnchorPoint: "top" 444 1082 mark 0
LayerCount: 2
Fore
SplineSet
100 1289 m 257
 337 1289 l 257
 443 1503 l 257
 549 1289 l 257
 786 1289 l 257
 579 1671 l 257
 307 1671 l 257
 100 1289 l 257
EndSplineSet
EndChar

StartChar: colon
Encoding: 26 58 177
Width: 692
VWidth: 0
GlyphClass: 2
Flags: W
PickledData: "(dp1
S'org.pippin.gimp.org.kernagic'
p2
(dp3
S'lstem'
p4
I0
sS'rstem'
p5
I0
ssS'com.typemytype.robofont.layerData'
p6
(dp7
S'b'
(dp8
S'name'
p9
S'colon'
p10
sS'lib'
p11
(dp12
sS'unicodes'
p13
(tsS'width'
p14
I653
sS'contours'
p15
(tsS'components'
p16
(tsS'anchors'
p17
(tsssS'org.robofab.postScriptHintData'
p18
(dp19
s."
LayerCount: 2
Fore
SplineSet
350 -7 m 256
 442 -7 508 48 508 143 c 256
 508 241 442 299 350 299 c 256
 259 299 192 241 192 143 c 256
 192 47 261 -7 350 -7 c 256
350 801 m 256
 442 801 508 856 508 951 c 256
 508 1049 442 1107 350 1107 c 256
 259 1107 192 1049 192 951 c 256
 192 855 261 801 350 801 c 256
EndSplineSet
EndChar

StartChar: comma
Encoding: 12 44 178
Width: 665
VWidth: 0
GlyphClass: 2
Flags: W
PickledData: "(dp1
S'org.pippin.gimp.org.kernagic'
p2
(dp3
S'lstem'
p4
I0
sS'rstem'
p5
I0
ssS'com.typemytype.robofont.layerData'
p6
(dp7
sS'org.robofab.postScriptHintData'
p8
(dp9
s."
LayerCount: 2
Fore
SplineSet
187 -336 m 257
 366 -336 l 257
 488 117 l 257
 488 268 l 257
 225 268 l 257
 225 222 187 -336 187 -336 c 257
EndSplineSet
EndChar

StartChar: uni0326
Encoding: 411 806 179
Width: 619
VWidth: 0
Flags: W
PickledData: "(dp1
S'org.robofab.postScriptHintData'
p2
(dp3
s."
AnchorPoint: "bot" 341 0 mark 0
LayerCount: 2
Fore
SplineSet
146 -544 m 257
 337 -544 l 257
 337 -544 467 -126 466 -111 c 257
 219 -111 l 257
 219 -136 146 -544 146 -544 c 257
EndSplineSet
EndChar

StartChar: uni0312
Encoding: 410 786 180
Width: 600
VWidth: 0
Flags: W
PickledData: "(dp1
S'org.robofab.postScriptHintData'
p2
(dp3
s."
AnchorPoint: "top" 291 1076 mark 0
LayerCount: 2
Fore
SplineSet
162 1295 m 257
 154 1276 l 257
 421 1276 l 257
 421 1301 476 1788 476 1788 c 257
 291 1788 l 257
 291 1788 162 1326 162 1295 c 257
EndSplineSet
EndChar

StartChar: copyright
Encoding: 104 169 181
Width: 1768
VWidth: 0
GlyphClass: 2
Flags: W
PickledData: "(dp1
S'org.pippin.gimp.org.kernagic'
p2
(dp3
S'lstem'
p4
I0
sS'rstem'
p5
I0
ssS'com.typemytype.robofont.layerData'
p6
(dp7
sS'org.robofab.postScriptHintData'
p8
(dp9
s."
LayerCount: 2
Fore
SplineSet
851 -45 m 256
 1270 -45 1632 273 1632 728 c 256
 1632 1184 1270 1501 851 1501 c 256
 433 1501 75 1184 75 728 c 256
 75 273 433 -45 851 -45 c 256
851 92 m 256
 514 92 227 354 227 728 c 256
 227 1102 514 1363 851 1363 c 256
 1188 1363 1476 1102 1476 728 c 256
 1476 355 1188 92 851 92 c 256
872 247 m 256
 972 247 1071 274 1156 327 c 257
 1112 442 l 257
 1034 398 957 379 884 379 c 256
 708 379 568 502 568 736 c 256
 568 964 708 1089 881 1089 c 256
 952 1089 1034 1067 1108 1024 c 257
 1155 1140 l 257
 1070 1194 970 1222 870 1222 c 256
 624 1222 395 1047 395 734 c 256
 395 419 626 247 872 247 c 256
EndSplineSet
EndChar

StartChar: currency
Encoding: 99 164 182
Width: 1125
VWidth: 0
GlyphClass: 2
Flags: W
PickledData: "(dp1
S'org.pippin.gimp.org.kernagic'
p2
(dp3
S'lstem'
p4
I0
sS'rstem'
p5
I0
ssS'com.typemytype.robofont.layerData'
p6
(dp7
S'b'
(dp8
S'name'
p9
S'currency'
p10
sS'lib'
p11
(dp12
sS'unicodes'
p13
(tsS'width'
p14
I1164
sS'contours'
p15
(tsS'components'
p16
(tsS'anchors'
p17
(tsssS'org.robofab.postScriptHintData'
p18
(dp19
s."
LayerCount: 2
Fore
SplineSet
836 738 m 256
 836 584 720 461 566 461 c 256
 415 461 299 584 299 738 c 256
 299 892 415 1018 566 1018 c 256
 718 1018 836 892 836 738 c 256
809 1077 m 257
 740 1133 658 1162 566 1162 c 256
 475 1162 389 1129 321 1078 c 257
 145 1251 l 257
 46 1153 l 257
 227 976 l 257
 181 905 156 825 156 738 c 256
 156 651 183 569 227 501 c 257
 47 325 l 257
 145 229 l 257
 319 400 l 257
 389 346 473 317 566 317 c 256
 658 317 741 349 809 402 c 257
 990 228 l 257
 1082 327 l 257
 906 501 l 257
 952 571 976 650 976 738 c 256
 976 826 949 907 905 976 c 257
 1083 1152 l 257
 990 1251 l 257
 809 1077 l 257
EndSplineSet
EndChar

StartChar: d
Encoding: 68 100 183
Width: 1248
VWidth: 0
GlyphClass: 2
Flags: W
PickledData: "(dp1
S'org.pippin.gimp.org.kernagic'
p2
(dp3
S'lstem'
p4
I0
sS'rstem'
p5
I0
ssS'com.fontlab.hintData'
p6
(dp7
S'vhints'
p8
((dp9
S'position'
p10
I114
sS'width'
p11
I166
s(dp12
g10
I907
sg11
I161
s(dp13
g10
I930
sg11
I138
stp14
sS'hhints'
p15
((dp16
g10
I-19
sg11
I127
s(dp17
g10
I953
sg11
I127
stp18
ssS'com.typemytype.robofont.layerData'
p19
(dp20
sS'org.robofab.postScriptHintData'
p21
(dp22
s."
HStem: -19 127 953 127
VStem: 114 166 907 161 930 138
AnchorPoint: "caron.alt" 1043 1125 basechar 0
AnchorPoint: "top" 481 1082 basechar 0
LayerCount: 2
Fore
SplineSet
604 181 m 256
 481 181 399 275 399 537 c 256
 399 818 492 903 612 903 c 256
 707 903 771 863 812 809 c 257
 812 284 l 257
 768 218 693 181 604 181 c 256
811 1540 m 257
 811 1142 l 257
 815 981 l 257
 762 1046 675 1102 544 1102 c 258
 542 1102 l 257
 540 1102 l 258
 245 1102 92 871 92 536 c 256
 92 217 240 -20 535 -20 c 258
 537 -20 l 258
 682 -20 781 57 836 161 c 257
 845 0 l 257
 1115 0 l 257
 1115 1560 l 257
 811 1540 l 257
EndSplineSet
EndChar

StartChar: dagger
Encoding: 452 8224 184
Width: 1130
VWidth: 0
GlyphClass: 2
Flags: W
PickledData: "(dp1
S'org.pippin.gimp.org.kernagic'
p2
(dp3
S'lstem'
p4
I0
sS'rstem'
p5
I0
ssS'com.typemytype.robofont.layerData'
p6
(dp7
S'b'
(dp8
S'name'
p9
S'dagger'
p10
sS'lib'
p11
(dp12
sS'unicodes'
p13
(tsS'width'
p14
I1050
sS'contours'
p15
(tsS'components'
p16
(tsS'anchors'
p17
(tsssS'org.robofab.postScriptHintData'
p18
(dp19
s."
LayerCount: 2
Fore
SplineSet
429 1469 m 257
 429 1092 l 257
 128 1092 l 257
 128 913 l 257
 429 913 l 257
 429 -47 l 257
 693 -47 l 257
 693 913 l 257
 1011 913 l 257
 1011 1092 l 257
 698 1092 l 257
 698 1469 l 257
 429 1469 l 257
EndSplineSet
EndChar

StartChar: daggerdbl
Encoding: 453 8225 185
Width: 1102
VWidth: 0
GlyphClass: 2
Flags: W
PickledData: "(dp1
S'org.pippin.gimp.org.kernagic'
p2
(dp3
S'lstem'
p4
I0
sS'rstem'
p5
I0
ssS'com.typemytype.robofont.layerData'
p6
(dp7
S'b'
(dp8
S'name'
p9
S'daggerdbl'
p10
sS'lib'
p11
(dp12
sS'unicodes'
p13
(tsS'width'
p14
I1022
sS'contours'
p15
(tsS'components'
p16
(tsS'anchors'
p17
(tsssS'org.robofab.postScriptHintData'
p18
(dp19
s."
LayerCount: 2
Fore
SplineSet
427 1462 m 257
 427 1085 l 257
 130 1085 l 257
 130 906 l 257
 427 906 l 257
 427 564 l 257
 130 564 l 257
 130 387 l 257
 427 387 l 257
 427 -93 l 257
 692 -93 l 257
 692 387 l 257
 1003 387 l 257
 1003 564 l 257
 698 564 l 257
 698 906 l 257
 1004 906 l 257
 1004 1085 l 257
 697 1085 l 257
 697 1462 l 257
 427 1462 l 257
EndSplineSet
EndChar

StartChar: uni030F
Encoding: 408 783 186
Width: 1042
VWidth: 0
Flags: W
PickledData: "(dp1
S'org.robofab.postScriptHintData'
p2
(dp3
sS'com.typemytype.robofont.layerData'
p4
(dp5
s."
AnchorPoint: "top" 551 1076 mark 0
LayerCount: 2
Fore
SplineSet
649 1255 m 257
 804 1255 l 257
 654 1644 l 257
 414 1644 l 257
 649 1255 l 257
309 1255 m 257
 455 1255 l 257
 309 1644 l 257
 46 1644 l 257
 309 1255 l 257
EndSplineSet
EndChar

StartChar: degree
Encoding: 111 176 189
Width: 842
VWidth: 0
GlyphClass: 2
Flags: W
PickledData: "(dp1
S'org.pippin.gimp.org.kernagic'
p2
(dp3
S'lstem'
p4
I0
sS'rstem'
p5
I0
ssS'com.typemytype.robofont.layerData'
p6
(dp7
sS'org.robofab.postScriptHintData'
p8
(dp9
s."
LayerCount: 2
Fore
SplineSet
425 898 m 256
 618 898 736 1044 736 1205 c 256
 736 1370 614 1503 425 1503 c 256
 234 1503 113 1370 113 1205 c 256
 113 1041 231 898 425 898 c 256
425 1037 m 256
 341 1037 267 1098 267 1204 c 256
 267 1305 341 1366 426 1366 c 256
 506 1366 581 1305 581 1204 c 256
 581 1098 508 1037 425 1037 c 256
EndSplineSet
EndChar

StartChar: dieresis
Encoding: 103 168 190
Width: 1053
VWidth: 0
GlyphClass: 4
Flags: W
PickledData: "(dp1
S'org.robofab.postScriptHintData'
p2
(dp3
sS'com.typemytype.robofont.layerData'
p4
(dp5
s."
AnchorPoint: "top" 522 1082 mark 0
LayerCount: 2
Fore
SplineSet
764 1243 m 256
 854 1243 905 1300 905 1387 c 256
 905 1474 854 1533 764 1533 c 256
 672 1533 619 1474 619 1387 c 256
 619 1301 672 1243 764 1243 c 256
270 1243 m 256
 360 1243 411 1301 411 1387 c 256
 411 1474 360 1533 270 1533 c 256
 179 1533 127 1474 127 1387 c 256
 127 1301 179 1243 270 1243 c 256
EndSplineSet
EndChar

StartChar: divide
Encoding: 182 247 191
Width: 1244
VWidth: 0
GlyphClass: 2
Flags: W
PickledData: "(dp1
S'org.pippin.gimp.org.kernagic'
p2
(dp3
S'lstem'
p4
I0
sS'rstem'
p5
I0
ssS'com.typemytype.robofont.layerData'
p6
(dp7
sS'org.robofab.postScriptHintData'
p8
(dp9
s."
LayerCount: 2
Fore
SplineSet
481 1147 m 257
 481 887 l 257
 752 887 l 257
 752 1147 l 257
 481 1147 l 257
481 294 m 257
 481 22 l 257
 744 22 l 257
 744 294 l 257
 481 294 l 257
88 687 m 257
 88 494 l 257
 1136 494 l 257
 1136 687 l 257
 88 687 l 257
EndSplineSet
EndChar

StartChar: dollar
Encoding: 4 36 192
Width: 1226
VWidth: 0
GlyphClass: 2
Flags: W
PickledData: "(dp1
S'org.pippin.gimp.org.kernagic'
p2
(dp3
S'lstem'
p4
I0
sS'rstem'
p5
I0
ssS'com.typemytype.robofont.layerData'
p6
(dp7
S'b'
(dp8
S'name'
p9
S'dollar'
p10
sS'lib'
p11
(dp12
sS'unicodes'
p13
(tsS'width'
p14
I1221
sS'contours'
p15
(tsS'components'
p16
(tsS'anchors'
p17
(tsssS'org.robofab.postScriptHintData'
p18
(dp19
s."
LayerCount: 2
Fore
SplineSet
540 53 m 257
 540 -285 l 257
 697 -285 l 257
 693 53 l 257
 540 53 l 257
537 1770 m 257
 534 1433 l 257
 690 1433 l 257
 690 1770 l 257
 537 1770 l 257
EndSplineSet
Refer: 94 83 N 1 0 0 1 0 0 2
EndChar

StartChar: dotaccent
Encoding: 402 729 193
Width: 582
VWidth: 0
GlyphClass: 4
Flags: W
PickledData: "(dp1
S'org.robofab.postScriptHintData'
p2
(dp3
sS'com.typemytype.robofont.layerData'
p4
(dp5
s."
AnchorPoint: "top" 292 1082 mark 0
LayerCount: 2
Fore
SplineSet
475 1451 m 256
 475 1551 406 1618 294 1618 c 256
 181 1618 112 1551 112 1451 c 256
 112 1345 181 1277 294 1277 c 256
 406 1277 475 1345 475 1451 c 256
EndSplineSet
EndChar

StartChar: dotlessi
Encoding: 240 305 194
Width: 589
VWidth: 0
GlyphClass: 2
Flags: W
PickledData: "(dp1
S'org.pippin.gimp.org.kernagic'
p2
(dp3
S'lstem'
p4
I0
sS'rstem'
p5
I0
ssS'com.typemytype.robofont.layerData'
p6
(dp7
sS'org.robofab.postScriptHintData'
p8
(dp9
s."
AnchorPoint: "top" 306 1082 basechar 0
LayerCount: 2
Fore
SplineSet
148 1082 m 257
 148 0 l 257
 455 0 l 257
 455 1082 l 257
 148 1082 l 257
EndSplineSet
EndChar

StartChar: uni0237
Encoding: 396 567 195
Width: 673
VWidth: 0
GlyphClass: 2
Flags: W
PickledData: "(dp1
S'org.pippin.gimp.org.kernagic'
p2
(dp3
S'lstem'
p4
I0
sS'rstem'
p5
I0
ssS'com.fontlab.hintData'
p6
(dp7
S'vhints'
p8
((dp9
S'position'
p10
I111
sS'width'
p11
I142
stp12
sS'hhints'
p13
((dp14
g10
I-479
sg11
I112
stp15
ssS'com.typemytype.robofont.layerData'
p16
(dp17
sS'org.robofab.postScriptHintData'
p18
(dp19
s."
HStem: -479 112
VStem: 111 142
LayerCount: 2
Fore
SplineSet
208 1082 m 257
 208 7 l 258
 208 -154 192 -194 29 -258 c 257
 -56 -292 l 257
 41 -515 l 257
 122 -484 l 257
 376 -391 515 -318 515 -25 c 258
 515 1082 l 257
 208 1082 l 257
EndSplineSet
EndChar

StartChar: e
Encoding: 69 101 196
Width: 1180
VWidth: 0
GlyphClass: 2
Flags: W
PickledData: "(dp1
S'org.pippin.gimp.org.kernagic'
p2
(dp3
S'lstem'
p4
I0
sS'rstem'
p5
I747
ssS'com.fontlab.hintData'
p6
(dp7
S'hhints'
p8
((dp9
S'position'
p10
I-19
sS'width'
p11
I94
s(dp12
g10
I982
sg11
I92
stp13
ssS'com.typemytype.robofont.layerData'
p14
(dp15
sS'org.robofab.postScriptHintData'
p16
(dp17
s."
HStem: -19 94 982 92
AnchorPoint: "bot" 650 0 basechar 0
AnchorPoint: "top" 625 1082 basechar 0
LayerCount: 2
Fore
SplineSet
399 625 m 257
 411 815 503 905 634 905 c 256
 763 905 826 816 827 625 c 257
 399 625 l 257
653 -20 m 256
 826 -20 979 32 1065 106 c 257
 998 270 l 257
 982 270 l 257
 897 217 802 180 688 180 c 256
 530 180 412 272 396 457 c 257
 1072 457 l 257
 1072 457 1083 514 1083 584 c 256
 1079 892 942 1103 619 1103 c 256
 305 1103 89 890 89 541 c 256
 89 195 316 -20 653 -20 c 256
EndSplineSet
EndChar

StartChar: eight
Encoding: 24 56 204
Width: 1343
VWidth: 0
GlyphClass: 2
Flags: W
PickledData: "(dp1
S'org.pippin.gimp.org.kernagic'
p2
(dp3
S'lstem'
p4
I0
sS'rstem'
p5
I0
ssS'com.typemytype.robofont.layerData'
p6
(dp7
sS'org.robofab.postScriptHintData'
p8
(dp9
s."
LayerCount: 2
Fore
SplineSet
675 832 m 257
 546 877 472 974 472 1099 c 256
 472 1212 553 1281 675 1281 c 256
 796 1281 872 1213 872 1099 c 256
 872 975 803 877 675 832 c 257
675 180 m 256
 532 180 462 252 462 397 c 256
 462 548 551 653 675 689 c 257
 798 653 883 546 883 398 c 256
 883 250 820 180 675 180 c 256
675 -20 m 256
 997 -20 1201 123 1201 383 c 256
 1201 577 1106 718 950 775 c 257
 1088 829 1174 936 1174 1112 c 256
 1174 1349 962 1476 673 1476 c 256
 385 1476 169 1349 169 1112 c 256
 169 932 264 822 404 774 c 257
 241 716 141 579 141 383 c 256
 141 123 351 -20 675 -20 c 256
EndSplineSet
EndChar

StartChar: emdash
Encoding: 445 8212 207
Width: 2206
VWidth: 0
GlyphClass: 2
Flags: W
PickledData: "(dp1
S'org.robofab.postScriptHintData'
p2
(dp3
sS'com.typemytype.robofont.layerData'
p4
(dp5
s."
LayerCount: 2
Fore
SplineSet
60 469 m 257
 2146 469 l 257
 2146 659 l 257
 60 659 l 257
 60 469 l 257
EndSplineSet
EndChar

StartChar: endash
Encoding: 444 8211 208
Width: 1215
VWidth: 0
GlyphClass: 2
Flags: W
PickledData: "(dp1
S'org.pippin.gimp.org.kernagic'
p2
(dp3
S'lstem'
p4
I0
sS'rstem'
p5
I0
ssS'com.typemytype.robofont.layerData'
p6
(dp7
sS'org.robofab.postScriptHintData'
p8
(dp9
s."
LayerCount: 2
Fore
SplineSet
117 465 m 257
 1098 465 l 257
 1098 662 l 257
 117 662 l 257
 117 465 l 257
EndSplineSet
EndChar

StartChar: eng
Encoding: 266 331 209
Width: 1230
VWidth: 0
GlyphClass: 2
Flags: W
PickledData: "(dp1
S'org.robofab.postScriptHintData'
p2
(dp3
sS'com.typemytype.robofont.layerData'
p4
(dp5
s."
LayerCount: 2
Fore
SplineSet
815 165 m 257
 815 -16 l 257
 814 -242 780 -284 512 -284 c 257
 531 -484 l 257
 986 -471 1121 -356 1121 -45 c 258
 1121 165 l 257
 815 165 l 257
EndSplineSet
Refer: 277 110 N 1 0 0 1 0 0 2
EndChar

StartChar: equal
Encoding: 29 61 211
Width: 1209
VWidth: 0
GlyphClass: 2
Flags: W
PickledData: "(dp1
S'org.pippin.gimp.org.kernagic'
p2
(dp3
S'lstem'
p4
I0
sS'rstem'
p5
I0
ssS'com.typemytype.robofont.layerData'
p6
(dp7
S'b'
(dp8
S'name'
p9
S'equal'
p10
sS'lib'
p11
(dp12
sS'unicodes'
p13
(tsS'width'
p14
I1050
sS'contours'
p15
(tsS'components'
p16
(tsS'anchors'
p17
(tsssS'org.robofab.postScriptHintData'
p18
(dp19
s."
LayerCount: 2
Fore
SplineSet
104 667 m 257
 104 467 l 257
 1089 467 l 257
 1089 667 l 257
 104 667 l 257
104 1086 m 257
 104 886 l 257
 1089 886 l 257
 1089 1086 l 257
 104 1086 l 257
EndSplineSet
EndChar

StartChar: estimated
Encoding: 465 8494 212
Width: 1180
VWidth: 0
GlyphClass: 2
Flags: W
PickledData: "(dp1
S'org.robofab.postScriptHintData'
p2
(dp3
sS'com.typemytype.robofont.layerData'
p4
(dp5
S'b'
(dp6
S'name'
p7
S'estimated'
p8
sS'lib'
p9
(dp10
sS'unicodes'
p11
(tsS'width'
p12
I1223
sS'contours'
p13
(tsS'components'
p14
(tsS'anchors'
p15
(tsss."
LayerCount: 2
Fore
SplineSet
937 591 m 257
 326 591 l 257
 343 848 458 1019 627 1019 c 256
 834 1019 937 822 937 591 c 257
78 531 m 256
 78 217 264 -20 638 -20 c 256
 842 -20 975 67 1073 185 c 257
 1023 235 l 257
 926 131 817 53 638 53 c 256
 413 53 327 240 326 511 c 257
 1081 511 l 257
 1081 852 936 1079 621 1079 c 256
 304 1079 78 846 78 531 c 256
EndSplineSet
EndChar

StartChar: eth
Encoding: 175 240 213
Width: 1180
VWidth: 0
GlyphClass: 2
Flags: W
PickledData: "(dp1
S'org.pippin.gimp.org.kernagic'
p2
(dp3
S'lstem'
p4
I0
sS'rstem'
p5
I0
ssS'com.typemytype.robofont.layerData'
p6
(dp7
sS'org.robofab.postScriptHintData'
p8
(dp9
s."
LayerCount: 2
Fore
SplineSet
891 478 m 256
 891 295 788 175 601 175 c 256
 410 175 305 309 305 480 c 256
 305 660 407 779 595 779 c 256
 783 779 891 650 891 478 c 256
178 1516 m 257
 384 1311 l 257
 202 1235 l 257
 264 1065 l 257
 509 1163 l 257
 576 1095 677 979 722 916 c 257
 680 934 617 956 554 956 c 256
 266 956 70 765 70 479 c 256
 70 190 277 -23 595 -23 c 256
 917 -23 1113 166 1113 473 c 256
 1112 617 1074 750 1014 854 c 256
 939 986 832 1104 706 1249 c 257
 919 1335 l 257
 854 1507 l 257
 584 1397 l 257
 467 1516 l 257
 178 1516 l 257
EndSplineSet
EndChar

StartChar: exclam
Encoding: 1 33 214
Width: 749
VWidth: 0
GlyphClass: 2
Flags: W
PickledData: "(dp1
S'org.pippin.gimp.org.kernagic'
p2
(dp3
S'lstem'
p4
I0
sS'rstem'
p5
I0
ssS'com.typemytype.robofont.layerData'
p6
(dp7
sS'org.robofab.postScriptHintData'
p8
(dp9
s."
LayerCount: 2
Fore
SplineSet
369 -9 m 256
 457 -9 517 63 517 144 c 256
 517 227 457 296 369 296 c 256
 280 296 219 227 219 144 c 256
 219 64 280 -9 369 -9 c 256
320 457 m 257
 430 457 l 257
 490 1324 l 257
 490 1536 l 257
 252 1536 l 257
 252 1324 l 257
 320 457 l 257
EndSplineSet
EndChar

StartChar: f
Encoding: 70 102 216
Width: 817
VWidth: 0
GlyphClass: 2
Flags: W
PickledData: "(dp1
S'org.pippin.gimp.org.kernagic'
p2
(dp3
S'lstem'
p4
I182
sS'rstem'
p5
I417
ssS'com.fontlab.hintData'
p6
(dp7
S'vhints'
p8
((dp9
S'position'
p10
I269
sS'width'
p11
I166
stp12
sS'hhints'
p13
((dp14
g10
I952
sg11
I89
s(dp15
g10
I1358
sg11
I122
stp16
ssS'com.typemytype.robofont.layerData'
p17
(dp18
sS'org.robofab.postScriptHintData'
p19
(dp20
s."
HStem: 952 89 1358 122
VStem: 269 166
AnchorPoint: "top" 442 1456 basechar 0
LayerCount: 2
Fore
SplineSet
510 1082 m 257
 510 1159 l 258
 510 1281 560 1318 675 1318 c 256
 710 1318 754 1313 802 1307 c 257
 812 1494 l 257
 790 1499 708 1520 571 1520 c 256
 363 1519 203 1449 203 1159 c 258
 203 1077 l 257
 50 1058 l 257
 45 906 l 257
 203 906 l 257
 203 0 l 257
 510 0 l 257
 510 906 l 257
 777 906 l 257
 777 1082 l 257
 510 1082 l 257
EndSplineSet
EndChar

StartChar: five
Encoding: 21 53 217
Width: 1343
VWidth: 0
GlyphClass: 2
Flags: W
PickledData: "(dp1
S'org.pippin.gimp.org.kernagic'
p2
(dp3
S'lstem'
p4
I0
sS'rstem'
p5
I0
ssS'com.typemytype.robofont.layerData'
p6
(dp7
sS'org.robofab.postScriptHintData'
p8
(dp9
s."
LayerCount: 2
Fore
SplineSet
678 745 m 256
 820 745 898 622 898 491 c 256
 898 329 815 215 645 215 c 256
 530 215 411 258 343 368 c 257
 324 368 l 257
 172 205 l 257
 263 67 422 -20 674 -20 c 256
 1012 -20 1190 214 1190 481 c 256
 1190 711 1048 952 732 952 c 256
 628 952 555 923 495 871 c 257
 539 1244 l 257
 1087 1244 l 257
 1116 1456 l 257
 293 1456 l 257
 235 659 l 257
 462 622 l 257
 496 704 568 745 678 745 c 256
EndSplineSet
EndChar

StartChar: florin
Encoding: 318 402 219
Width: 1153
VWidth: 0
GlyphClass: 2
Flags: W
PickledData: "(dp1
S'org.robofab.postScriptHintData'
p2
(dp3
s."
LayerCount: 2
Fore
SplineSet
476 1265 m 258
 439 1039 l 257
 231 1039 l 257
 215 963 l 257
 428 963 l 257
 275 108 l 257
 235 -139 218 -231 69 -231 c 256
 31 -231 -14 -225 -71 -214 c 257
 -99 -324 l 257
 -18 -353 55 -368 121 -368 c 256
 329 -368 465 -220 526 115 c 258
 679 963 l 257
 975 963 l 257
 991 1039 l 257
 696 1039 l 257
 743 1307 l 258
 769 1451 828 1519 935 1519 c 256
 1043 1519 1070 1433 1082 1306 c 257
 1231 1306 l 257
 1224 1542 1123 1677 908 1677 c 256
 667 1677 520 1532 476 1265 c 258
EndSplineSet
EndChar

StartChar: foundryicon
Encoding: 488 -1 220
Width: 1347
VWidth: 0
GlyphClass: 2
Flags: W
PickledData: "(dp1
S'org.robofab.postScriptHintData'
p2
(dp3
s."
LayerCount: 2
Fore
SplineSet
280 2 m 257
 669 278 l 257
 1066 2 l 257
 922 461 l 257
 1313 755 l 257
 828 755 l 257
 669 1215 l 257
 519 755 l 257
 34 755 l 257
 423 461 l 257
 280 2 l 257
485 405 m 257
 485 672 l 257
 591 672 l 257
 761 523 l 257
 761 672 l 257
 867 672 l 257
 867 405 l 257
 761 405 l 257
 591 552 l 257
 591 405 l 257
 485 405 l 257
EndSplineSet
EndChar

StartChar: four
Encoding: 20 52 221
Width: 1343
VWidth: 0
GlyphClass: 2
Flags: W
PickledData: "(dp1
S'org.pippin.gimp.org.kernagic'
p2
(dp3
S'lstem'
p4
I0
sS'rstem'
p5
I0
ssS'com.typemytype.robofont.layerData'
p6
(dp7
sS'org.robofab.postScriptHintData'
p8
(dp9
s."
LayerCount: 2
Fore
SplineSet
353 545 m 257
 722 1149 l 257
 722 545 l 257
 353 545 l 257
722 0 m 257
 1043 0 l 257
 1043 339 l 257
 1232 339 l 257
 1246 549 l 257
 1043 549 l 257
 1043 1456 l 257
 673 1456 l 257
 105 535 l 257
 132 339 l 257
 722 339 l 257
 722 0 l 257
EndSplineSet
EndChar

StartChar: fraction
Encoding: 459 8260 222
Width: 1138
VWidth: 0
GlyphClass: 2
Flags: W
PickledData: "(dp1
S'org.robofab.postScriptHintData'
p2
(dp3
s."
LayerCount: 2
Fore
SplineSet
70 0 m 257
 267 0 l 257
 1183 1541 l 257
 994 1541 l 257
 70 0 l 257
EndSplineSet
EndChar

StartChar: g
Encoding: 71 103 223
Width: 1242
VWidth: 0
GlyphClass: 2
Flags: W
PickledData: "(dp1
S'org.pippin.gimp.org.kernagic'
p2
(dp3
S'lstem'
p4
I0
sS'rstem'
p5
I0
ssS'com.fontlab.hintData'
p6
(dp7
S'vhints'
p8
((dp9
S'position'
p10
I128
sS'width'
p11
I122
s(dp12
g10
I977
sg11
I125
s(dp13
g10
I977
sg11
I36
stp14
sS'hhints'
p15
((dp16
g10
I-426
sg11
I101
s(dp17
g10
I0
sg11
I93
s(dp18
g10
I982
sg11
I92
stp19
ssS'com.typemytype.robofont.layerData'
p20
(dp21
sS'org.robofab.postScriptHintData'
p22
(dp23
s."
HStem: -426 101 0 93 982 92
VStem: 128 122 977 125 977 36
AnchorPoint: "top" 587 1082 basechar 0
LayerCount: 2
Fore
SplineSet
610 180 m 256
 475 180 397 300 397 558 c 256
 397 826 501 902 613 902 c 256
 709 902 760 870 810 811 c 257
 810 256 l 257
 766 209 688 180 610 180 c 256
576 -504 m 256
 893 -504 1110 -348 1110 7 c 258
 1110 1082 l 257
 818 1082 l 257
 815 985 l 257
 762 1048 678 1103 549 1103 c 258
 547 1103 l 258
 313 1103 89 933 89 558 c 256
 89 125 316 -7 537 -7 c 256
 678 -7 769 42 823 100 c 257
 829 19 l 258
 830 5 831 -10 831 -23 c 256
 831 -229 709 -301 532 -302 c 256
 446 -302 345 -284 254 -253 c 257
 227 -253 l 257
 205 -455 l 257
 312 -488 440 -504 576 -504 c 256
EndSplineSet
EndChar

StartChar: germandbls
Encoding: 158 223 229
Width: 1321
VWidth: 0
GlyphClass: 2
Flags: W
PickledData: "(dp1
S'org.pippin.gimp.org.kernagic'
p2
(dp3
S'lstem'
p4
I0
sS'rstem'
p5
I0
ssS'com.typemytype.robofont.layerData'
p6
(dp7
S'b'
(dp8
S'name'
p9
S'germandbls'
p10
sS'lib'
p11
(dp12
sS'unicodes'
p13
(tsS'width'
p14
I1278
sS'contours'
p15
(tsS'components'
p16
(tsS'anchors'
p17
(tsssS'org.robofab.postScriptHintData'
p18
(dp19
s."
LayerCount: 2
Fore
SplineSet
894 -20 m 256
 1143 -20 1266 105 1266 318 c 256
 1266 633 884 706 884 777 c 256
 884 836 1099 919 1099 1146 c 256
 1099 1376 899 1495 639 1495 c 256
 337 1495 134 1316 134 1021 c 258
 134 0 l 257
 440 0 l 257
 440 991 l 258
 440 1178 507 1279 656 1279 c 256
 755 1279 817 1237 817 1144 c 256
 817 968 639 922 639 750 c 256
 639 556 945 516 945 323 c 256
 945 239 895 193 810 193 c 256
 734 193 649 222 608 245 c 257
 548 53 l 257
 662 5 790 -20 894 -20 c 256
EndSplineSet
EndChar

StartChar: grave
Encoding: 64 96 230
Width: 1033
VWidth: 0
GlyphClass: 4
Flags: W
PickledData: "(dp1
S'org.robofab.postScriptHintData'
p2
(dp3
sS'com.typemytype.robofont.layerData'
p4
(dp5
s."
AnchorPoint: "top" 533 1076 mark 0
LayerCount: 2
Fore
SplineSet
418 1208 m 257
 592 1208 l 257
 412 1606 l 257
 87 1606 l 257
 418 1208 l 257
EndSplineSet
EndChar

StartChar: greater
Encoding: 30 62 231
Width: 1107
VWidth: 0
GlyphClass: 2
Flags: W
PickledData: "(dp1
S'org.pippin.gimp.org.kernagic'
p2
(dp3
S'lstem'
p4
I0
sS'rstem'
p5
I0
ssS'com.typemytype.robofont.layerData'
p6
(dp7
S'b'
(dp8
S'name'
p9
S'greater'
p10
sS'lib'
p11
(dp12
sS'unicodes'
p13
(tsS'width'
p14
I1107
sS'contours'
p15
(tsS'components'
p16
(tsS'anchors'
p17
(tsssS'org.robofab.postScriptHintData'
p18
(dp19
s."
LayerCount: 2
Fore
SplineSet
87 1041 m 257
 729 705 l 257
 86 399 l 257
 86 175 l 257
 1028 635 l 257
 1028 761 l 257
 87 1258 l 257
 87 1041 l 257
EndSplineSet
EndChar

StartChar: greaterequal
Encoding: 480 8805 232
Width: 1192
VWidth: 0
GlyphClass: 2
Flags: W
PickledData: "(dp1
S'org.pippin.gimp.org.kernagic'
p2
(dp3
S'lstem'
p4
I0
sS'rstem'
p5
I0
ssS'com.typemytype.robofont.layerData'
p6
(dp7
S'b'
(dp8
S'name'
p9
S'greaterequal'
p10
sS'lib'
p11
(dp12
sS'unicodes'
p13
(tsS'width'
p14
I1192
sS'contours'
p15
(tsS'components'
p16
(tsS'anchors'
p17
(tsssS'org.robofab.postScriptHintData'
p18
(dp19
s."
LayerCount: 2
Fore
SplineSet
135 4 m 257
 1067 4 l 257
 1067 167 l 257
 135 168 l 257
 135 4 l 257
147 221 m 257
 1060 697 l 257
 1060 813 l 257
 148 1305 l 257
 148 1104 l 257
 841 755 l 257
 147 425 l 257
 147 221 l 257
EndSplineSet
EndChar

StartChar: guillemotleft
Encoding: 106 171 233
Width: 1033
VWidth: 0
GlyphClass: 2
Flags: W
PickledData: "(dp1
S'org.pippin.gimp.org.kernagic'
p2
(dp3
S'lstem'
p4
I0
sS'rstem'
p5
I0
ssS'com.typemytype.robofont.layerData'
p6
(dp7
S'b'
(dp8
S'name'
p9
S'guillemotleft'
p10
sS'lib'
p11
(dp12
sS'unicodes'
p13
(tsS'width'
p14
I994
sS'contours'
p15
(tsS'components'
p16
(tsS'anchors'
p17
(tsssS'org.robofab.postScriptHintData'
p18
(dp19
s."
LayerCount: 2
Fore
SplineSet
770 134 m 257
 950 134 l 257
 694 569 l 257
 954 1002 l 257
 772 1002 l 257
 462 566 l 257
 770 134 l 257
360 134 m 257
 540 134 l 257
 283 569 l 257
 545 1002 l 257
 363 1002 l 257
 51 566 l 257
 360 134 l 257
EndSplineSet
EndChar

StartChar: guillemotright
Encoding: 122 187 234
Width: 1033
VWidth: 0
GlyphClass: 2
Flags: W
PickledData: "(dp1
S'org.pippin.gimp.org.kernagic'
p2
(dp3
S'lstem'
p4
I0
sS'rstem'
p5
I0
ssS'com.typemytype.robofont.layerData'
p6
(dp7
sS'org.robofab.postScriptHintData'
p8
(dp9
s."
LayerCount: 2
Fore
SplineSet
646 134 m 257
 961 572 l 257
 652 1002 l 257
 477 1002 l 257
 727 566 l 257
 467 134 l 257
 646 134 l 257
249 134 m 257
 561 572 l 257
 252 1002 l 257
 75 1002 l 257
 329 566 l 257
 66 134 l 257
 249 134 l 257
EndSplineSet
EndChar

StartChar: guilsinglleft
Encoding: 457 8249 235
Width: 833
VWidth: 0
GlyphClass: 2
Flags: W
PickledData: "(dp1
S'org.robofab.postScriptHintData'
p2
(dp3
s."
LayerCount: 2
Fore
SplineSet
450 165 m 257
 640 165 l 257
 377 583 l 257
 646 1013 l 257
 457 1013 l 257
 175 584 l 257
 450 165 l 257
EndSplineSet
EndChar

StartChar: guilsinglright
Encoding: 458 8250 236
Width: 766
VWidth: 0
GlyphClass: 2
Flags: W
PickledData: "(dp1
S'org.pippin.gimp.org.kernagic'
p2
(dp3
S'lstem'
p4
I0
sS'rstem'
p5
I0
ssS'com.typemytype.robofont.layerData'
p6
(dp7
S'b'
(dp8
S'name'
p9
S'guilsinglright'
p10
sS'lib'
p11
(dp12
sS'unicodes'
p13
(tsS'width'
p14
I766
sS'contours'
p15
(tsS'components'
p16
(tsS'anchors'
p17
(tsssS'org.robofab.postScriptHintData'
p18
(dp19
s."
LayerCount: 2
Fore
SplineSet
139 165 m 257
 329 165 l 257
 612 581 l 257
 339 994 l 257
 150 994 l 257
 408 583 l 257
 139 165 l 257
EndSplineSet
EndChar

StartChar: h
Encoding: 72 104 237
Width: 1254
VWidth: 0
GlyphClass: 2
Flags: W
PickledData: "(dp1
S'org.pippin.gimp.org.kernagic'
p2
(dp3
S'lstem'
p4
I0
sS'rstem'
p5
I0
ssS'com.fontlab.hintData'
p6
(dp7
S'vhints'
p8
((dp9
S'position'
p10
I193
sS'width'
p11
I122
s(dp12
g10
I910
sg11
I122
stp13
sS'hhints'
p14
((dp15
g10
I982
sg11
I92
stp16
ssS'com.typemytype.robofont.layerData'
p17
(dp18
sS'org.robofab.postScriptHintData'
p19
(dp20
s."
HStem: 982 92
VStem: 193 122 910 122
AnchorPoint: "top" 574 1485 basechar 0
LayerCount: 2
Fore
SplineSet
146 0 m 257
 452 0 l 257
 452 613 l 258
 452 795 522 902 661 902 c 256
 771 902 820 834 820 637 c 258
 820 0 l 257
 1127 0 l 257
 1127 672 l 258
 1127 941 1012 1103 773 1103 c 256
 602 1103 503 1017 447 886 c 257
 453 1155 l 257
 453 1560 l 257
 146 1540 l 257
 146 0 l 257
EndSplineSet
EndChar

StartChar: hungarumlaut
Encoding: 406 733 240
Width: 932
VWidth: 0
GlyphClass: 4
Flags: W
PickledData: "(dp1
S'org.robofab.postScriptHintData'
p2
(dp3
sS'com.typemytype.robofont.layerData'
p4
(dp5
s."
AnchorPoint: "top" 386 1076 mark 0
LayerCount: 2
Fore
SplineSet
480 1255 m 257
 626 1255 l 257
 890 1644 l 257
 627 1644 l 257
 480 1255 l 257
132 1255 m 257
 286 1255 l 257
 522 1644 l 257
 282 1644 l 257
 132 1255 l 257
EndSplineSet
EndChar

StartChar: hyphen
Encoding: 13 45 241
Width: 931
VWidth: 0
GlyphClass: 4
Flags: W
PickledData: "(dp1
S'org.pippin.gimp.org.kernagic'
p2
(dp3
S'lstem'
p4
I0
sS'rstem'
p5
I0
ssS'com.typemytype.robofont.layerData'
p6
(dp7
sS'org.robofab.postScriptHintData'
p8
(dp9
s."
LayerCount: 2
Fore
SplineSet
152 453 m 257
 782 453 l 257
 782 652 l 257
 152 652 l 257
 152 453 l 257
EndSplineSet
EndChar

StartChar: i
Encoding: 73 105 242
Width: 626
VWidth: 0
GlyphClass: 2
Flags: HW
PickledData: "(dp1
S'org.robofab.postScriptHintData'
p2
(dp3
sS'com.typemytype.robofont.layerData'
p4
(dp5
s."
LayerCount: 2
Fore
SplineSet
499 1451 m 256
 499 1551 430 1618 318 1618 c 256
 205 1618 136 1551 136 1451 c 256
 136 1345 205 1277 318 1277 c 256
 430 1277 499 1345 499 1451 c 256
160 1082 m 257
 160 0 l 257
 467 0 l 257
 467 1082 l 257
 160 1082 l 257
EndSplineSet
EndChar

StartChar: infinity
Encoding: 475 8734 253
Width: 1746
VWidth: 0
GlyphClass: 2
Flags: W
PickledData: "(dp1
S'org.pippin.gimp.org.kernagic'
p2
(dp3
S'lstem'
p4
I0
sS'rstem'
p5
I0
ssS'com.typemytype.robofont.layerData'
p6
(dp7
S'b'
(dp8
S'name'
p9
S'infinity'
p10
sS'lib'
p11
(dp12
sS'unicodes'
p13
(tsS'width'
p14
I1647
sS'contours'
p15
(tsS'components'
p16
(tsS'anchors'
p17
(tsssS'org.robofab.postScriptHintData'
p18
(dp19
s."
LayerCount: 2
Fore
SplineSet
1478 674 m 256
 1478 536 1420 440 1294 440 c 256
 1194 440 1117 508 1013 648 c 257
 1092 760 1183 851 1290 851 c 256
 1401 851 1478 768 1478 674 c 256
747 646 m 257
 663 528 566 440 463 440 c 256
 344 440 263 544 263 646 c 256
 263 758 337 851 456 851 c 256
 570 851 664 769 747 646 c 257
878 756 m 257
 755 923 628 1034 457 1034 c 256
 259 1034 102 872 102 669 c 256
 102 445 234 254 461 254 c 256
 628 254 758 369 878 531 c 257
 1015 345 1140 254 1292 254 c 256
 1492 254 1648 417 1648 651 c 256
 1648 873 1521 1034 1294 1034 c 256
 1120 1034 993 918 878 756 c 257
EndSplineSet
EndChar

StartChar: integral
Encoding: 476 8747 254
Width: 809
VWidth: 0
GlyphClass: 2
Flags: W
PickledData: "(dp1
S'org.pippin.gimp.org.kernagic'
p2
(dp3
S'lstem'
p4
I0
sS'rstem'
p5
I0
ssS'com.typemytype.robofont.layerData'
p6
(dp7
S'b'
(dp8
S'name'
p9
S'integral'
p10
sS'lib'
p11
(dp12
sS'unicodes'
p13
(tsS'width'
p14
I994
sS'contours'
p15
(tsS'components'
p16
(tsS'anchors'
p17
(tsssS'org.robofab.postScriptHintData'
p18
(dp19
s."
LayerCount: 2
Fore
SplineSet
298 1178 m 258
 298 -43 l 258
 298 -219 235 -254 150 -254 c 256
 122 -254 89 -248 53 -242 c 257
 53 -455 l 257
 115 -472 169 -478 215 -478 c 256
 432 -478 546 -309 546 -35 c 258
 546 1187 l 258
 546 1347 574 1419 687 1419 c 256
 710 1419 737 1415 767 1410 c 257
 767 1582 l 257
 702 1597 648 1606 600 1606 c 256
 392 1606 298 1447 298 1178 c 258
EndSplineSet
EndChar

StartChar: j
Encoding: 74 106 257
Width: 663
VWidth: 0
GlyphClass: 2
Flags: HW
PickledData: "(dp1
S'org.robofab.postScriptHintData'
p2
(dp3
sS'com.typemytype.robofont.layerData'
p4
(dp5
s."
LayerCount: 2
Fore
SplineSet
543 1451 m 256
 543 1551 474 1618 362 1618 c 256
 249 1618 180 1551 180 1451 c 256
 180 1345 249 1277 362 1277 c 256
 474 1277 543 1345 543 1451 c 256
204 1082 m 257
 204 7 l 258
 204 -154 188 -194 25 -258 c 257
 -60 -292 l 257
 37 -515 l 257
 118 -484 l 257
 372 -391 511 -318 511 -25 c 258
 511 1082 l 257
 204 1082 l 257
EndSplineSet
EndChar

StartChar: k
Encoding: 75 107 259
Width: 1182
VWidth: 0
GlyphClass: 2
Flags: W
PickledData: "(dp1
S'org.pippin.gimp.org.kernagic'
p2
(dp3
S'lstem'
p4
I0
sS'rstem'
p5
I671
ssS'com.typemytype.robofont.layerData'
p6
(dp7
sS'org.robofab.postScriptHintData'
p8
(dp9
s."
AnchorPoint: "bot" 641 0 basechar 0
LayerCount: 2
Fore
SplineSet
146 0 m 257
 453 0 l 257
 453 418 l 257
 522 483 l 257
 856 0 l 257
 1167 0 l 257
 1167 29 l 257
 750 607 l 257
 1147 1062 l 257
 1147 1082 l 257
 824 1082 l 257
 448 657 l 257
 453 817 l 257
 453 1560 l 257
 146 1540 l 257
 146 0 l 257
EndSplineSet
EndChar

StartChar: kgreenlandic
Encoding: 247 312 261
Width: 1159
VWidth: 0
GlyphClass: 2
Flags: W
PickledData: "(dp1
S'org.robofab.postScriptHintData'
p2
(dp3
s."
LayerCount: 2
Fore
SplineSet
121 0 m 257
 366 0 l 257
 366 369 l 257
 456 458 l 257
 804 0 l 257
 1085 0 l 257
 1085 11 l 257
 643 588 l 257
 1059 1062 l 257
 1059 1082 l 257
 774 1082 l 257
 360 600 l 257
 366 818 l 257
 366 1082 l 257
 121 1082 l 257
 121 0 l 257
EndSplineSet
EndChar

StartChar: l
Encoding: 76 108 262
Width: 729
VWidth: 0
GlyphClass: 2
Flags: W
PickledData: "(dp1
S'org.pippin.gimp.org.kernagic'
p2
(dp3
S'lstem'
p4
I0
sS'rstem'
p5
I238
ssS'com.fontlab.hintData'
p6
(dp7
S'vhints'
p8
((dp9
S'position'
p10
I193
sS'width'
p11
I122
stp12
sS'hhints'
p13
((dp14
g10
I-11
sg11
I87
stp15
ssS'com.typemytype.robofont.layerData'
p16
(dp17
sS'org.robofab.postScriptHintData'
p18
(dp19
s."
HStem: -11 87
VStem: 193 122
AnchorPoint: "top" 326 1539 basechar 0
LayerCount: 2
Fore
SplineSet
581 -9 m 258
 669 -7 l 257
 682 190 l 257
 562 199 l 258
 471 205 451 239 451 324 c 258
 451 1560 l 257
 144 1540 l 257
 144 346 l 258
 144 81 256 -10 535 -10 c 256
 550 -10 565 -10 581 -9 c 258
EndSplineSet
EndChar

StartChar: less
Encoding: 28 60 267
Width: 1107
VWidth: 0
GlyphClass: 2
Flags: W
PickledData: "(dp1
S'org.pippin.gimp.org.kernagic'
p2
(dp3
S'lstem'
p4
I0
sS'rstem'
p5
I0
ssS'com.typemytype.robofont.layerData'
p6
(dp7
S'b'
(dp8
S'name'
p9
S'less'
p10
sS'lib'
p11
(dp12
sS'unicodes'
p13
(tsS'width'
p14
I1107
sS'contours'
p15
(tsS'components'
p16
(tsS'anchors'
p17
(tsssS'org.robofab.postScriptHintData'
p18
(dp19
s."
LayerCount: 2
Fore
SplineSet
1003 173 m 257
 1003 397 l 257
 358 705 l 257
 1003 1039 l 257
 1003 1256 l 257
 62 761 l 257
 62 636 l 257
 1003 173 l 257
EndSplineSet
EndChar

StartChar: lessequal
Encoding: 479 8804 268
Width: 1192
VWidth: 0
GlyphClass: 2
Flags: W
PickledData: "(dp1
S'org.robofab.postScriptHintData'
p2
(dp3
sS'com.typemytype.robofont.layerData'
p4
(dp5
s."
LayerCount: 2
Fore
SplineSet
117 -2 m 257
 1055 -2 l 257
 1055 160 l 257
 117 159 l 257
 117 -2 l 257
1045 301 m 257
 1045 504 l 257
 385 797 l 257
 1046 1103 l 257
 1046 1304 l 257
 136 855 l 257
 136 736 l 257
 1045 301 l 257
EndSplineSet
EndChar

StartChar: logicalnot
Encoding: 107 172 269
Width: 1210
VWidth: 0
GlyphClass: 2
Flags: W
PickledData: "(dp1
S'org.pippin.gimp.org.kernagic'
p2
(dp3
S'lstem'
p4
I0
sS'rstem'
p5
I0
ssS'com.typemytype.robofont.layerData'
p6
(dp7
sS'org.robofab.postScriptHintData'
p8
(dp9
s."
LayerCount: 2
Fore
SplineSet
96 841 m 257
 96 647 l 257
 898 647 l 257
 898 250 l 257
 1088 250 l 257
 1088 841 l 257
 96 841 l 257
EndSplineSet
EndChar

StartChar: lozenge
Encoding: 481 9674 270
Width: 1203
VWidth: 0
GlyphClass: 2
Flags: W
PickledData: "(dp1
S'org.pippin.gimp.org.kernagic'
p2
(dp3
S'lstem'
p4
I0
sS'rstem'
p5
I0
ssS'com.typemytype.robofont.layerData'
p6
(dp7
S'b'
(dp8
S'name'
p9
S'lozenge'
p10
sS'lib'
p11
(dp12
sS'unicodes'
p13
(tsS'width'
p14
I1164
sS'contours'
p15
(tsS'components'
p16
(tsS'anchors'
p17
(tsssS'org.robofab.postScriptHintData'
p18
(dp19
s."
LayerCount: 2
Fore
SplineSet
925 746 m 257
 775 464 743 434 593 151 c 257
 444 431 424 465 279 746 c 257
 428 1028 454 1060 605 1340 c 257
 749 1057 779 1026 925 746 c 257
540 1539 m 257
 103 744 l 257
 533 -46 l 257
 659 -46 l 257
 1101 745 l 257
 669 1539 l 257
 540 1539 l 257
EndSplineSet
EndChar

StartChar: m
Encoding: 77 109 272
Width: 1889
VWidth: 0
GlyphClass: 2
Flags: W
PickledData: "(dp1
S'org.pippin.gimp.org.kernagic'
p2
(dp3
S'lstem'
p4
I0
sS'rstem'
p5
I0
ssS'com.fontlab.hintData'
p6
(dp7
S'vhints'
p8
((dp9
S'position'
p10
I193
sS'width'
p11
I122
s(dp12
g10
I193
sg11
I98
s(dp13
g10
I845
sg11
I122
s(dp14
g10
I1483
sg11
I122
stp15
sS'hhints'
p16
((dp17
g10
I982
sg11
I92
stp18
ssS'com.typemytype.robofont.layerData'
p19
(dp20
sS'org.robofab.postScriptHintData'
p21
(dp22
s."
HStem: 982 92
VStem: 193 122 193 98 845 122 1483 122
AnchorPoint: "top" 1036 1082 basechar 0
LayerCount: 2
Fore
SplineSet
139 0 m 257
 445 0 l 257
 445 628 l 257
 454 811 532 902 642 902 c 256
 749 902 797 831 797 618 c 258
 797 0 l 257
 1104 0 l 257
 1104 660 l 257
 1110 804 1207 902 1303 902 c 256
 1419 902 1456 810 1456 631 c 258
 1456 0 l 257
 1763 0 l 257
 1763 682 l 258
 1763 947 1637 1103 1402 1103 c 256
 1227 1103 1123 1009 1066 886 c 257
 1008 1043 807 1060 742 1103 c 257
 578 1103 477 1014 420 895 c 257
 401 1082 l 257
 139 1082 l 257
 139 0 l 257
EndSplineSet
EndChar

StartChar: macron
Encoding: 110 175 273
Width: 1070
VWidth: 0
GlyphClass: 4
Flags: W
PickledData: "(dp1
S'org.robofab.postScriptHintData'
p2
(dp3
sS'com.typemytype.robofont.layerData'
p4
(dp5
s."
AnchorPoint: "top" 534 1076 mark 0
LayerCount: 2
Fore
SplineSet
191 1284 m 257
 866 1284 l 257
 866 1421 l 257
 191 1421 l 257
 191 1284 l 257
EndSplineSet
EndChar

StartChar: minus
Encoding: 471 8722 275
Width: 1203
VWidth: 0
GlyphClass: 2
Flags: W
PickledData: "(dp1
S'org.pippin.gimp.org.kernagic'
p2
(dp3
S'lstem'
p4
I0
sS'rstem'
p5
I0
ssS'com.typemytype.robofont.layerData'
p6
(dp7
sS'org.robofab.postScriptHintData'
p8
(dp9
s."
LayerCount: 2
Fore
SplineSet
96 666 m 257
 96 476 l 257
 1116 476 l 257
 1116 666 l 257
 96 666 l 257
EndSplineSet
EndChar

StartChar: multiply
Encoding: 150 215 276
Width: 994
VWidth: 0
GlyphClass: 2
Flags: W
PickledData: "(dp1
S'org.pippin.gimp.org.kernagic'
p2
(dp3
S'lstem'
p4
I0
sS'rstem'
p5
I0
ssS'com.typemytype.robofont.layerData'
p6
(dp7
sS'org.robofab.postScriptHintData'
p8
(dp9
s."
LayerCount: 2
Fore
SplineSet
98 844 m 257
 366 558 l 257
 96 273 l 257
 225 132 l 257
 501 417 l 257
 773 134 l 257
 904 275 l 257
 904 275 693 496 634 558 c 257
 902 844 l 257
 771 980 l 257
 501 697 l 257
 227 981 l 257
 98 844 l 257
EndSplineSet
EndChar

StartChar: n
Encoding: 78 110 277
Width: 1248
VWidth: 0
GlyphClass: 2
Flags: W
PickledData: "(dp1
S'org.pippin.gimp.org.kernagic'
p2
(dp3
S'lstem'
p4
I0
sS'rstem'
p5
I0
ssS'com.fontlab.hintData'
p6
(dp7
S'vhints'
p8
((dp9
S'position'
p10
I193
sS'width'
p11
I122
s(dp12
g10
I903
sg11
I122
stp13
sS'hhints'
p14
((dp15
g10
I0
sg11
I22
s(dp16
g10
I982
sg11
I92
s(dp17
g10
I1034
sg11
I21
stp18
ssS'com.typemytype.robofont.layerData'
p19
(dp20
sS'org.robofab.postScriptHintData'
p21
(dp22
s."
HStem: 0 22 982 92 1034 21
VStem: 193 122 903 122
AnchorPoint: "bot" 640 0 basechar 0
AnchorPoint: "top" 701 1082 basechar 0
LayerCount: 2
Fore
SplineSet
141 0 m 257
 448 0 l 257
 448 619 l 258
 448 803 524 902 657 902 c 256
 770 902 815 826 815 638 c 258
 815 0 l 257
 1121 0 l 257
 1121 665 l 258
 1121 940 1000 1103 757 1103 c 256
 573 1103 476 1004 423 895 c 257
 403 1082 l 257
 141 1082 l 257
 141 0 l 257
EndSplineSet
EndChar

StartChar: nine
Encoding: 25 57 282
Width: 1343
VWidth: 0
GlyphClass: 2
Flags: W
PickledData: "(dp1
S'org.pippin.gimp.org.kernagic'
p2
(dp3
S'lstem'
p4
I0
sS'rstem'
p5
I0
ssS'com.typemytype.robofont.layerData'
p6
(dp7
sS'org.robofab.postScriptHintData'
p8
(dp9
s."
LayerCount: 2
Fore
SplineSet
917 1004 m 256
 917 826 806 740 687 740 c 256
 545 740 464 848 464 1003 c 256
 464 1152 550 1259 692 1259 c 256
 833 1259 917 1152 917 1004 c 256
334 0 m 257
 664 0 l 257
 1049 535 l 257
 1156 681 1227 808 1227 994 c 256
 1227 1267 1032 1476 692 1476 c 256
 362 1476 156 1283 156 1011 c 256
 156 707 378 560 592 560 c 256
 658 560 724 578 776 604 c 257
 623 418 481 221 334 28 c 257
 334 0 l 257
EndSplineSet
EndChar

StartChar: notequal
Encoding: 478 8800 283
Width: 1159
VWidth: 0
GlyphClass: 2
Flags: W
PickledData: "(dp1
S'org.pippin.gimp.org.kernagic'
p2
(dp3
S'lstem'
p4
I0
sS'rstem'
p5
I0
ssS'com.typemytype.robofont.layerData'
p6
(dp7
S'b'
(dp8
S'name'
p9
S'notequal'
p10
sS'lib'
p11
(dp12
sS'unicodes'
p13
(tsS'width'
p14
I1079
sS'contours'
p15
(tsS'components'
p16
(tsS'anchors'
p17
(tsssS'org.robofab.postScriptHintData'
p18
(dp19
s."
LayerCount: 2
Fore
SplineSet
367 43 m 257
 503 325 l 257
 1059 325 l 257
 1047 498 l 257
 582 498 l 257
 701 735 l 257
 1059 735 l 257
 1045 918 l 257
 780 918 l 257
 894 1162 l 257
 732 1185 l 257
 598 918 l 257
 58 918 l 257
 71 736 l 257
 521 736 l 257
 404 499 l 257
 61 499 l 257
 71 325 l 257
 324 325 l 257
 206 69 l 257
 367 43 l 257
EndSplineSet
EndChar

StartChar: numbersign
Encoding: 3 35 285
Width: 1125
VWidth: 0
GlyphClass: 2
Flags: W
PickledData: "(dp1
S'org.pippin.gimp.org.kernagic'
p2
(dp3
S'lstem'
p4
I0
sS'rstem'
p5
I0
ssS'com.typemytype.robofont.layerData'
p6
(dp7
sS'org.robofab.postScriptHintData'
p8
(dp9
s."
LayerCount: 2
Fore
SplineSet
418 562 m 257
 489 958 l 257
 729 958 l 257
 657 562 l 257
 418 562 l 257
157 -5 m 257
 312 -5 l 257
 394 440 l 257
 635 440 l 257
 553 -5 l 257
 708 -5 l 257
 792 440 l 257
 972 440 l 257
 988 562 l 257
 815 562 l 257
 886 958 l 257
 1055 958 l 257
 1074 1082 l 257
 908 1082 l 257
 985 1490 l 257
 828 1490 l 257
 752 1082 l 257
 511 1082 l 257
 588 1490 l 257
 432 1490 l 257
 356 1082 l 257
 158 1082 l 257
 141 958 l 257
 334 958 l 257
 262 562 l 257
 81 562 l 257
 64 440 l 257
 240 440 l 257
 157 -5 l 257
EndSplineSet
EndChar

StartChar: o
Encoding: 79 111 286
Width: 1239
VWidth: 0
GlyphClass: 2
Flags: W
PickledData: "(dp1
S'org.pippin.gimp.org.kernagic'
p2
(dp3
S'lstem'
p4
I0
sS'rstem'
p5
I0
ssS'org.robofab.postScriptHintData'
p6
(dp7
sS'com.typemytype.robofont.guides'
p8
((dp9
S'y'
I1093
sS'x'
I582
sS'magnetic'
p10
I5
sS'angle'
p11
F90
sS'isGlobal'
p12
I00
stp13
sS'com.typemytype.robofont.layerData'
p14
(dp15
sS'com.fontlab.hintData'
p16
(dp17
S'vhints'
p18
((dp19
S'position'
p20
I128
sS'width'
p21
I120
s(dp22
g20
I982
sg21
I120
stp23
sS'hhints'
p24
((dp25
g20
I-19
sg21
I92
s(dp26
g20
I982
sg21
I92
stp27
ss."
HStem: -19 92 982 92
VStem: 128 120 982 120
AnchorPoint: "top" 621 1082 basechar 0
LayerCount: 2
Fore
SplineSet
620 -21 m 256
 952 -21 1150 208 1150 544 c 256
 1150 877 951 1103 620 1103 c 256
 288 1103 89 877 89 544 c 256
 89 208 287 -21 620 -21 c 256
620 180 m 256
 473 180 397 303 397 544 c 256
 397 783 472 902 620 902 c 256
 767 902 843 783 843 544 c 256
 843 304 766 180 620 180 c 256
EndSplineSet
Substitution2: "Single Substitution lookup 4 subtable" ordmasculine
EndChar

StartChar: oe
Encoding: 274 339 291
Width: 1863
VWidth: 0
GlyphClass: 2
Flags: W
PickledData: "(dp1
S'org.pippin.gimp.org.kernagic'
p2
(dp3
S'lstem'
p4
I0
sS'rstem'
p5
I0
ssS'com.typemytype.robofont.layerData'
p6
(dp7
S'b'
(dp8
S'name'
p9
S'oe'
p10
sS'lib'
p11
(dp12
sS'unicodes'
p13
(tsS'width'
p14
F1915.3599999999999
sS'contours'
p15
(tsS'components'
p16
(tsS'anchors'
p17
(tsssS'org.robofab.postScriptHintData'
p18
(dp19
s."
LayerCount: 2
Fore
SplineSet
1085 618 m 257
 1097 824 1216 914 1341 914 c 256
 1466 914 1537 832 1547 618 c 257
 1085 618 l 257
577 176 m 256
 404 176 324 305 324 544 c 256
 324 780 404 906 577 906 c 256
 749 906 829 780 829 544 c 256
 829 305 748 176 577 176 c 256
1765 579 m 256
 1761 890 1615 1099 1329 1099 c 256
 1179 1099 1031 1005 959 891 c 257
 891 1005 740 1099 577 1099 c 256
 267 1099 75 881 75 543 c 256
 75 205 267 -17 577 -17 c 256
 738 -17 885 74 956 186 c 257
 1039 67 1202 -17 1376 -17 c 256
 1545 -17 1685 41 1749 103 c 257
 1683 266 l 257
 1670 266 l 257
 1622 221 1511 176 1395 176 c 256
 1260 176 1105 233 1081 456 c 257
 1757 456 l 257
 1757 456 1765 507 1765 579 c 256
EndSplineSet
EndChar

StartChar: ogonek
Encoding: 404 731 292
Width: 766
VWidth: 0
GlyphClass: 4
Flags: W
PickledData: "(dp1
S'org.pippin.gimp.org.kernagic'
p2
(dp3
S'lstem'
p4
I0
sS'rstem'
p5
I0
ssS'com.typemytype.robofont.layerData'
p6
(dp7
sS'org.robofab.postScriptHintData'
p8
(dp9
s."
LayerCount: 2
Fore
SplineSet
448 -441 m 256
 510 -441 574 -425 629 -403 c 257
 622 -257 l 257
 608 -265 550 -290 495 -290 c 256
 453 -290 422 -254 422 -213 c 256
 422 -149 468 -56 544 4 c 257
 435 4 l 257
 351 -39 243 -132 243 -263 c 256
 243 -382 333 -441 448 -441 c 256
EndSplineSet
EndChar

StartChar: one
Encoding: 17 49 296
Width: 1343
VWidth: 0
GlyphClass: 2
Flags: W
PickledData: "(dp1
S'org.pippin.gimp.org.kernagic'
p2
(dp3
S'lstem'
p4
I0
sS'rstem'
p5
I0
ssS'com.typemytype.robofont.layerData'
p6
(dp7
sS'org.robofab.postScriptHintData'
p8
(dp9
s."
LayerCount: 2
Fore
SplineSet
195 0 m 257
 1231 0 l 257
 1231 216 l 257
 899 216 l 257
 899 1456 l 257
 616 1456 l 257
 521 1385 320 1308 198 1275 c 257
 198 1064 l 257
 297 1076 462 1129 571 1181 c 257
 571 216 l 257
 195 216 l 257
 195 0 l 257
EndSplineSet
EndChar

StartChar: onehalf
Encoding: 124 189 297
Width: 1905
VWidth: 0
GlyphClass: 3
Flags: W
PickledData: "(dp1
S'org.pippin.gimp.org.kernagic'
p2
(dp3
S'lstem'
p4
I0
sS'rstem'
p5
I0
ssS'com.typemytype.robofont.layerData'
p6
(dp7
sS'org.robofab.postScriptHintData'
p8
(dp9
s."
LayerCount: 2
Fore
SplineSet
393 0 m 257
 581 0 l 257
 1546 1500 l 257
 1358 1500 l 257
 393 0 l 257
151 598 m 257
 637 598 l 257
 637 734 l 257
 495 734 l 257
 495 1500 l 257
 350 1500 l 257
 320 1479 189 1410 142 1387 c 257
 142 1250 l 257
 152 1251 269 1305 306 1325 c 257
 306 734 l 257
 151 734 l 257
 151 598 l 257
1244 0 m 257
 1791 0 l 257
 1797 142 l 257
 1445 142 l 257
 1629 306 l 258
 1754 417 1804 511 1804 609 c 256
 1804 751 1713 881 1496 881 c 256
 1352 881 1238 803 1176 717 c 257
 1273 613 l 257
 1327 683 1411 726 1491 726 c 256
 1560 726 1617 685 1617 611 c 256
 1617 555 1587 497 1514 425 c 258
 1220 137 l 257
 1244 0 l 257
EndSplineSet
Ligature2: "fracDiagonalFractionslookup11 subtable" one slash two
EndChar

StartChar: onequarter
Encoding: 123 188 298
Width: 1644
VWidth: 0
GlyphClass: 3
Flags: W
PickledData: "(dp1
S'org.pippin.gimp.org.kernagic'
p2
(dp3
S'lstem'
p4
I0
sS'rstem'
p5
I0
ssS'com.typemytype.robofont.layerData'
p6
(dp7
sS'org.robofab.postScriptHintData'
p8
(dp9
s."
LayerCount: 2
Fore
SplineSet
1167 318 m 257
 1365 655 l 257
 1365 318 l 257
 1167 318 l 257
319 0 m 257
 520 0 l 257
 1492 1499 l 257
 1297 1499 l 257
 319 0 l 257
1365 0 m 257
 1526 0 l 257
 1526 181 l 257
 1629 181 l 257
 1639 318 l 257
 1526 318 l 257
 1526 871 l 257
 1355 871 l 257
 989 319 l 257
 989 181 l 257
 1365 181 l 257
 1365 0 l 257
120 598 m 257
 586 598 l 257
 586 756 l 257
 450 756 l 257
 450 1499 l 257
 305 1499 l 257
 274 1479 151 1409 105 1387 c 257
 105 1230 l 257
 113 1231 237 1285 274 1304 c 257
 274 756 l 257
 120 756 l 257
 120 598 l 257
EndSplineSet
Ligature2: "fracDiagonalFractionslookup11 subtable" one slash four
EndChar

StartChar: ordmasculine
Encoding: 121 186 300
Width: 965
VWidth: 0
GlyphClass: 2
Flags: W
PickledData: "(dp1
S'org.pippin.gimp.org.kernagic'
p2
(dp3
S'lstem'
p4
I0
sS'rstem'
p5
I0
ssS'com.typemytype.robofont.layerData'
p6
(dp7
S'b'
(dp8
S'name'
p9
S'ordmasculine'
p10
sS'lib'
p11
(dp12
sS'unicodes'
p13
(tsS'width'
p14
I965
sS'contours'
p15
(tsS'components'
p16
(tsS'anchors'
p17
(tsssS'org.robofab.postScriptHintData'
p18
(dp19
s."
LayerCount: 2
Fore
SplineSet
658 1120 m 256
 658 958 601 879 480 879 c 256
 368 879 309 959 309 1123 c 256
 309 1289 369 1370 480 1370 c 256
 595 1370 658 1286 658 1120 c 256
116 1123 m 256
 116 894 244 716 480 716 c 256
 704 716 844 896 844 1123 c 256
 844 1356 722 1533 480 1533 c 256
 244 1533 116 1353 116 1123 c 256
EndSplineSet
EndChar

StartChar: oslash
Encoding: 183 248 301
Width: 1239
VWidth: 0
GlyphClass: 2
Flags: W
PickledData: "(dp1
S'org.pippin.gimp.org.kernagic'
p2
(dp3
S'lstem'
p4
I0
sS'rstem'
p5
I0
ssS'com.typemytype.robofont.layerData'
p6
(dp7
sS'org.robofab.postScriptHintData'
p8
(dp9
s."
LayerCount: 2
Fore
SplineSet
220 -125 m 257
 294 -173 l 257
 1032 1207 l 257
 952 1255 l 257
 220 -125 l 257
EndSplineSet
Refer: 286 111 N 1 0 0 1 0 0 2
EndChar

StartChar: p
Encoding: 80 112 304
Width: 1254
VWidth: 0
GlyphClass: 2
Flags: W
PickledData: "(dp1
S'org.pippin.gimp.org.kernagic'
p2
(dp3
S'lstem'
p4
I0
sS'rstem'
p5
I0
ssS'com.fontlab.hintData'
p6
(dp7
S'vhints'
p8
((dp9
S'position'
p10
I193
sS'width'
p11
I122
s(dp12
g10
I193
sg11
I97
s(dp13
g10
I1009
sg11
I122
stp14
sS'hhints'
p15
((dp16
g10
I-19
sg11
I92
s(dp17
g10
I982
sg11
I92
stp18
ssS'com.typemytype.robofont.layerData'
p19
(dp20
sS'org.robofab.postScriptHintData'
p21
(dp22
s."
HStem: -19 92 982 92
VStem: 193 122 193 97 1009 122
AnchorPoint: "top" 662 1082 basechar 0
LayerCount: 2
Fore
SplineSet
645 180 m 256
 551 180 486 220 442 278 c 257
 442 697 l 257
 464 820 535 902 661 902 c 256
 784 902 855 802 855 547 c 256
 855 266 766 180 645 180 c 256
141 -471 m 257
 443 -471 l 257
 443 -59 l 257
 439 100 l 257
 494 35 584 -20 717 -20 c 256
 1009 -20 1162 215 1162 546 c 256
 1162 867 1023 1103 733 1103 c 256
 566 1103 468 1011 421 888 c 257
 410 1082 l 257
 141 1082 l 257
 141 -471 l 257
EndSplineSet
EndChar

StartChar: paragraph
Encoding: 117 182 305
Width: 1216
VWidth: 0
GlyphClass: 2
Flags: W
PickledData: "(dp1
S'org.pippin.gimp.org.kernagic'
p2
(dp3
S'lstem'
p4
I0
sS'rstem'
p5
I0
ssS'com.typemytype.robofont.layerData'
p6
(dp7
sS'org.robofab.postScriptHintData'
p8
(dp9
s."
LayerCount: 2
Fore
SplineSet
683 1312 m 257
 861 1312 l 257
 861 -240 l 257
 1025 -240 l 257
 1025 1456 l 257
 630 1456 l 258
 241 1456 109 1315 109 1072 c 256
 109 881 234 706 519 706 c 257
 519 -240 l 257
 683 -240 l 257
 683 1312 l 257
EndSplineSet
EndChar

StartChar: parenright
Encoding: 9 41 307
Width: 846
VWidth: 0
GlyphClass: 2
Flags: W
PickledData: "(dp1
S'org.pippin.gimp.org.kernagic'
p2
(dp3
S'lstem'
p4
I0
sS'rstem'
p5
I0
ssS'com.typemytype.robofont.layerData'
p6
(dp7
S'b'
(dp8
S'name'
p9
S'parenright'
p10
sS'lib'
p11
(dp12
sS'unicodes'
p13
(tsS'width'
p14
I766
sS'contours'
p15
(tsS'components'
p16
(tsS'anchors'
p17
(tsssS'org.robofab.postScriptHintData'
p18
(dp19
s."
LayerCount: 2
Fore
SplineSet
640 657 m 256
 640 1010 518 1389 364 1594 c 257
 146 1594 l 257
 146 1556 l 257
 291 1371 414 1099 414 657 c 256
 414 216 291 -63 146 -248 c 257
 146 -279 l 257
 364 -279 l 257
 518 -74 640 305 640 657 c 256
EndSplineSet
EndChar

StartChar: partialdiff
Encoding: 466 8706 308
Width: 1324
VWidth: 0
GlyphClass: 2
Flags: W
PickledData: "(dp1
S'org.robofab.postScriptHintData'
p2
(dp3
s."
LayerCount: 2
Fore
SplineSet
546 122 m 256
 487 122 459 183 459 268 c 256
 459 463 608 787 892 825 c 257
 870 542 758 122 546 122 c 256
532 -20 m 256
 906 -20 1144 393 1144 924 c 256
 1144 1313 897 1560 594 1560 c 256
 488 1560 374 1529 262 1464 c 257
 316 1328 l 257
 396 1373 476 1394 549 1394 c 256
 748 1394 900 1238 900 980 c 258
 900 955 l 257
 444 934 190 583 190 308 c 256
 190 128 299 -20 532 -20 c 256
EndSplineSet
EndChar

StartChar: percent
Encoding: 5 37 309
Width: 2046
VWidth: 0
GlyphClass: 2
Flags: W
PickledData: "(dp1
S'org.pippin.gimp.org.kernagic'
p2
(dp3
S'lstem'
p4
I0
sS'rstem'
p5
I0
ssS'com.typemytype.robofont.layerData'
p6
(dp7
S'b'
(dp8
S'name'
p9
S'percent'
p10
sS'lib'
p11
(dp12
sS'unicodes'
p13
(tsS'width'
p14
I1563
sS'contours'
p15
(tsS'components'
p16
(tsS'anchors'
p17
(tsssS'org.robofab.postScriptHintData'
p18
(dp19
s."
LayerCount: 2
Fore
SplineSet
1559 -28 m 256
 1801 -28 1949 151 1949 380 c 256
 1949 611 1804 781 1559 781 c 256
 1319 781 1172 607 1172 380 c 256
 1172 151 1315 -28 1559 -28 c 256
1563 140 m 256
 1436 140 1369 245 1369 382 c 256
 1369 516 1436 620 1563 620 c 256
 1687 620 1753 521 1753 382 c 256
 1753 248 1688 140 1563 140 c 256
489 0 m 257
 705 0 l 257
 1545 1508 l 257
 1337 1508 l 257
 489 0 l 257
478 718 m 256
 720 718 868 896 868 1124 c 256
 868 1355 723 1528 478 1528 c 256
 238 1528 101 1352 101 1124 c 256
 101 896 234 718 478 718 c 256
482 885 m 256
 355 885 288 990 288 1128 c 256
 288 1262 355 1366 482 1366 c 256
 606 1366 672 1267 672 1128 c 256
 672 992 607 885 482 885 c 256
EndSplineSet
EndChar

StartChar: period
Encoding: 14 46 310
Width: 704
VWidth: 0
GlyphClass: 2
Flags: W
PickledData: "(dp1
S'org.pippin.gimp.org.kernagic'
p2
(dp3
S'lstem'
p4
I0
sS'rstem'
p5
I0
ssS'com.typemytype.robofont.layerData'
p6
(dp7
S'b'
(dp8
S'name'
p9
S'period'
p10
sS'lib'
p11
(dp12
sS'unicodes'
p13
(tsS'width'
p14
I624
sS'contours'
p15
(tsS'components'
p16
(tsS'anchors'
p17
(tsssS'org.robofab.postScriptHintData'
p18
(dp19
s."
LayerCount: 2
Fore
SplineSet
348 -8 m 256
 436 -8 500 42 500 142 c 256
 500 244 436 295 348 295 c 256
 260 295 196 244 196 142 c 256
 196 41 261 -8 348 -8 c 256
EndSplineSet
EndChar

StartChar: periodcentered
Encoding: 118 183 311
Width: 612
VWidth: 0
GlyphClass: 2
Flags: W
PickledData: "(dp1
S'org.pippin.gimp.org.kernagic'
p2
(dp3
S'lstem'
p4
I0
sS'rstem'
p5
I0
ssS'com.typemytype.robofont.layerData'
p6
(dp7
S'b'
(dp8
S'name'
p9
S'periodcentered'
p10
sS'lib'
p11
(dp12
sS'unicodes'
p13
(tsS'width'
p14
I653
sS'contours'
p15
(tsS'components'
p16
(tsS'anchors'
p17
(tsssS'org.robofab.postScriptHintData'
p18
(dp19
s."
LayerCount: 2
Fore
SplineSet
445 465 m 256
 537 465 598 528 598 627 c 256
 598 722 537 783 445 783 c 256
 351 783 289 722 289 627 c 256
 289 528 351 465 445 465 c 256
EndSplineSet
EndChar

StartChar: perthousand
Encoding: 456 8240 312
Width: 2956
VWidth: 0
GlyphClass: 2
Flags: W
PickledData: "(dp1
S'org.pippin.gimp.org.kernagic'
p2
(dp3
S'lstem'
p4
I0
sS'rstem'
p5
I0
ssS'com.typemytype.robofont.layerData'
p6
(dp7
S'b'
(dp8
S'name'
p9
S'perthousand'
p10
sS'lib'
p11
(dp12
sS'unicodes'
p13
(tsS'width'
p14
I2251
sS'contours'
p15
(tsS'components'
p16
(tsS'anchors'
p17
(tsssS'org.robofab.postScriptHintData'
p18
(dp19
s."
LayerCount: 2
Fore
SplineSet
2470 -28 m 256
 2712 -28 2859 151 2859 380 c 256
 2859 611 2715 781 2470 781 c 256
 2229 781 2082 607 2082 380 c 256
 2082 151 2225 -28 2470 -28 c 256
2474 140 m 256
 2347 140 2280 245 2280 382 c 256
 2280 516 2347 620 2474 620 c 256
 2598 620 2663 521 2663 382 c 256
 2663 248 2599 140 2474 140 c 256
EndSplineSet
Refer: 309 37 N 1 0 0 1 38 0 2
EndChar

StartChar: pi
Encoding: 417 960 313
Width: 1477
VWidth: 0
GlyphClass: 2
Flags: W
PickledData: "(dp1
S'org.robofab.postScriptHintData'
p2
(dp3
sS'com.typemytype.robofont.layerData'
p4
(dp5
s."
LayerCount: 2
Fore
SplineSet
1147 -13 m 256
 1225 -13 1290 11 1324 44 c 257
 1324 172 l 257
 1296 162 1266 157 1225 157 c 256
 1168 157 1118 169 1118 238 c 256
 1118 344 1122 656 1136 861 c 257
 1372 861 l 257
 1372 1082 l 257
 484 1082 l 258
 247 1082 173 946 173 730 c 257
 269 730 l 257
 281 806 320 860 400 861 c 257
 483 861 l 257
 419 388 l 257
 391 172 257 111 185 111 c 257
 185 4 l 257
 530 4 600 105 611 323 c 258
 637 861 l 257
 973 861 l 257
 935 660 904 342 904 211 c 256
 904 32 1010 -13 1147 -13 c 256
EndSplineSet
EndChar

StartChar: plus
Encoding: 11 43 314
Width: 1175
VWidth: 0
GlyphClass: 2
Flags: W
PickledData: "(dp1
S'org.pippin.gimp.org.kernagic'
p2
(dp3
S'lstem'
p4
I0
sS'rstem'
p5
I0
ssS'com.typemytype.robofont.layerData'
p6
(dp7
S'b'
(dp8
S'name'
p9
S'plus'
p10
sS'lib'
p11
(dp12
sS'unicodes'
p13
(tsS'width'
p14
I1136
sS'contours'
p15
(tsS'components'
p16
(tsS'anchors'
p17
(tsssS'org.robofab.postScriptHintData'
p18
(dp19
s."
LayerCount: 2
Fore
SplineSet
472 1211 m 257
 472 838 l 257
 107 838 l 257
 107 615 l 257
 471 615 l 257
 471 234 l 257
 699 234 l 257
 699 615 l 257
 1062 615 l 257
 1062 838 l 257
 699 838 l 257
 699 1211 l 257
 472 1211 l 257
EndSplineSet
EndChar

StartChar: plusminus
Encoding: 112 177 315
Width: 1136
VWidth: 0
GlyphClass: 2
Flags: W
PickledData: "(dp1
S'org.pippin.gimp.org.kernagic'
p2
(dp3
S'lstem'
p4
I0
sS'rstem'
p5
I0
ssS'com.typemytype.robofont.layerData'
p6
(dp7
sS'org.robofab.postScriptHintData'
p8
(dp9
s."
LayerCount: 2
Fore
SplineSet
105 179 m 257
 105 0 l 257
 1041 0 l 257
 1041 179 l 257
 105 179 l 257
469 1198 m 257
 469 844 l 257
 109 844 l 257
 109 644 l 257
 469 644 l 257
 469 295 l 257
 674 295 l 257
 674 644 l 257
 1032 644 l 257
 1032 844 l 257
 674 844 l 257
 674 1198 l 257
 469 1198 l 257
EndSplineSet
EndChar

StartChar: product
Encoding: 469 8719 316
Width: 1574
VWidth: 0
GlyphClass: 2
Flags: W
PickledData: "(dp1
S'org.pippin.gimp.org.kernagic'
p2
(dp3
S'lstem'
p4
I0
sS'rstem'
p5
I0
ssS'com.typemytype.robofont.layerData'
p6
(dp7
S'b'
(dp8
S'name'
p9
S'product'
p10
sS'lib'
p11
(dp12
sS'unicodes'
p13
(tsS'width'
p14
I1533
sS'contours'
p15
(tsS'components'
p16
(tsS'anchors'
p17
(tsssS'org.robofab.postScriptHintData'
p18
(dp19
s."
LayerCount: 2
Fore
SplineSet
205 1527 m 257
 205 0 l 257
 382 0 l 257
 382 1367 l 257
 1197 1367 l 257
 1197 0 l 257
 1375 0 l 257
 1375 1527 l 257
 205 1527 l 257
EndSplineSet
EndChar

StartChar: q
Encoding: 81 113 317
Width: 1244
VWidth: 0
GlyphClass: 2
Flags: W
PickledData: "(dp1
S'org.pippin.gimp.org.kernagic'
p2
(dp3
S'lstem'
p4
I0
sS'rstem'
p5
I0
ssS'com.typemytype.robofont.layerData'
p6
(dp7
sS'org.robofab.postScriptHintData'
p8
(dp9
s."
LayerCount: 2
Fore
SplineSet
611 180 m 256
 489 180 398 265 398 548 c 256
 398 808 480 902 601 902 c 256
 692 902 766 863 810 791 c 257
 810 272 l 257
 770 219 706 180 611 180 c 256
809 -471 m 257
 1111 -471 l 257
 1111 1082 l 257
 842 1082 l 257
 834 927 l 257
 783 1025 689 1103 535 1103 c 256
 244 1103 91 868 91 548 c 256
 91 214 239 -20 539 -20 c 258
 541 -20 l 258
 662 -20 754 32 813 101 c 257
 809 -42 l 257
 809 -471 l 257
EndSplineSet
EndChar

StartChar: question
Encoding: 31 63 318
Width: 1029
VWidth: 0
GlyphClass: 2
Flags: W
PickledData: "(dp1
S'org.pippin.gimp.org.kernagic'
p2
(dp3
S'lstem'
p4
I0
sS'rstem'
p5
I0
ssS'com.typemytype.robofont.layerData'
p6
(dp7
sS'org.robofab.postScriptHintData'
p8
(dp9
s."
LayerCount: 2
Fore
SplineSet
367 -18 m 256
 459 -18 512 43 512 130 c 256
 512 217 459 277 367 277 c 256
 273 277 218 217 218 130 c 256
 218 44 273 -18 367 -18 c 256
325 483 m 257
 404 463 l 257
 575 784 880 825 880 1185 c 256
 880 1413 692 1532 481 1532 c 256
 361 1532 210 1492 115 1403 c 257
 186 1191 l 257
 254 1230 349 1268 433 1268 c 256
 549 1268 598 1201 598 1103 c 256
 598 941 419 831 325 483 c 257
EndSplineSet
EndChar

StartChar: quotedbl
Encoding: 2 34 320
Width: 818
VWidth: 0
GlyphClass: 2
Flags: W
PickledData: "(dp1
S'org.robofab.postScriptHintData'
p2
(dp3
sS'com.typemytype.robofont.layerData'
p4
(dp5
s."
LayerCount: 2
Fore
SplineSet
551 936 m 257
 688 936 l 257
 733 1549 l 257
 465 1549 l 257
 551 936 l 257
179 936 m 257
 316 936 l 257
 361 1549 l 257
 94 1549 l 257
 179 936 l 257
EndSplineSet
EndChar

StartChar: quotedblbase
Encoding: 451 8222 321
Width: 904
VWidth: 0
GlyphClass: 2
Flags: W
PickledData: "(dp1
S'org.robofab.postScriptHintData'
p2
(dp3
s."
LayerCount: 2
Fore
SplineSet
488 -360 m 257
 671 -360 l 257
 791 147 l 257
 528 147 l 257
 488 -360 l 257
106 -360 m 257
 289 -360 l 257
 407 147 l 257
 147 147 l 257
 106 -360 l 257
EndSplineSet
EndChar

StartChar: quotedblleft
Encoding: 449 8220 322
Width: 954
VWidth: 0
GlyphClass: 2
Flags: W
PickledData: "(dp1
S'org.robofab.postScriptHintData'
p2
(dp3
sS'com.typemytype.robofont.layerData'
p4
(dp5
s."
LayerCount: 2
Fore
SplineSet
532 1029 m 257
 799 1029 l 257
 838 1539 l 257
 651 1539 l 257
 532 1029 l 257
128 1029 m 257
 395 1029 l 257
 434 1539 l 257
 247 1539 l 257
 128 1029 l 257
EndSplineSet
EndChar

StartChar: quotedblright
Encoding: 450 8221 323
Width: 954
VWidth: 0
GlyphClass: 2
Flags: W
PickledData: "(dp1
S'org.robofab.postScriptHintData'
p2
(dp3
sS'com.typemytype.robofont.layerData'
p4
(dp5
s."
LayerCount: 2
Fore
SplineSet
128 1029 m 257
 315 1029 l 257
 434 1539 l 257
 167 1539 l 257
 128 1029 l 257
532 1029 m 257
 719 1029 l 257
 838 1539 l 257
 571 1539 l 257
 532 1029 l 257
EndSplineSet
EndChar

StartChar: quoteleft
Encoding: 446 8216 324
Width: 529
VWidth: 0
GlyphClass: 2
Flags: W
PickledData: "(dp1
S'org.robofab.postScriptHintData'
p2
(dp3
sS'com.typemytype.robofont.layerData'
p4
(dp5
s."
LayerCount: 2
Fore
SplineSet
434 1539 m 257
 247 1539 l 257
 128 1029 l 257
 395 1029 l 257
 434 1539 l 257
EndSplineSet
EndChar

StartChar: quoteright
Encoding: 447 8217 325
Width: 529
VWidth: 0
GlyphClass: 2
Flags: W
PickledData: "(dp1
S'org.robofab.postScriptHintData'
p2
(dp3
sS'com.typemytype.robofont.layerData'
p4
(dp5
s."
LayerCount: 2
Fore
SplineSet
128 1029 m 257
 315 1029 l 257
 434 1539 l 257
 167 1539 l 257
 128 1029 l 257
EndSplineSet
EndChar

StartChar: quotesinglbase
Encoding: 448 8218 326
Width: 505
VWidth: 0
GlyphClass: 2
Flags: W
PickledData: "(dp1
S'org.robofab.postScriptHintData'
p2
(dp3
s."
LayerCount: 2
Fore
SplineSet
102 -360 m 257
 286 -360 l 257
 407 147 l 257
 144 147 l 257
 102 -360 l 257
EndSplineSet
EndChar

StartChar: quotesingle
Encoding: 7 39 327
Width: 568
VWidth: 0
GlyphClass: 2
Flags: W
PickledData: "(dp1
S'org.robofab.postScriptHintData'
p2
(dp3
s."
LayerCount: 2
Fore
SplineSet
211 921 m 257
 353 921 l 257
 395 1539 l 257
 130 1539 l 257
 211 921 l 257
EndSplineSet
EndChar

StartChar: r
Encoding: 82 114 328
Width: 847
VWidth: 0
GlyphClass: 2
Flags: W
PickledData: "(dp1
S'org.pippin.gimp.org.kernagic'
p2
(dp3
S'lstem'
p4
I0
sS'rstem'
p5
I352
ssS'com.fontlab.hintData'
p6
(dp7
S'vhints'
p8
((dp9
S'position'
p10
I193
sS'width'
p11
I122
s(dp12
g10
I193
sg11
I92
stp13
sS'hhints'
p14
((dp15
g10
I974
sg11
I94
stp16
ssS'com.typemytype.robofont.layerData'
p17
(dp18
sS'org.robofab.postScriptHintData'
p19
(dp20
s."
HStem: 974 94
VStem: 193 122 193 92
AnchorPoint: "bot" 340 0 basechar 0
AnchorPoint: "top" 434 1082 basechar 0
LayerCount: 2
Fore
SplineSet
134 0 m 257
 441 0 l 257
 441 610 l 258
 441 763 561 860 717 860 c 256
 725 860 734 860 742 859 c 258
 795 854 l 257
 814 1080 l 257
 768 1088 724 1090 695 1090 c 256
 594 1090 481 1037 416 894 c 257
 398 1082 l 257
 134 1082 l 257
 134 0 l 257
EndSplineSet
EndChar

StartChar: radical
Encoding: 474 8730 330
Width: 1313
VWidth: 0
GlyphClass: 2
Flags: W
PickledData: "(dp1
S'org.pippin.gimp.org.kernagic'
p2
(dp3
S'lstem'
p4
I0
sS'rstem'
p5
I0
ssS'com.typemytype.robofont.layerData'
p6
(dp7
S'b'
(dp8
S'name'
p9
S'radical'
p10
sS'lib'
p11
(dp12
sS'unicodes'
p13
(tsS'width'
p14
I1136
sS'contours'
p15
(tsS'components'
p16
(tsS'anchors'
p17
(tsssS'org.robofab.postScriptHintData'
p18
(dp19
s."
LayerCount: 2
Fore
SplineSet
1034 1613 m 257
 990 1427 664 330 620 144 c 257
 534 416 438 678 346 945 c 257
 25 854 l 257
 51 730 l 257
 194 768 l 257
 535 -166 l 257
 787 -166 l 257
 1281 1613 l 257
 1034 1613 l 257
EndSplineSet
EndChar

StartChar: registered
Encoding: 109 174 333
Width: 1887
VWidth: 0
GlyphClass: 2
Flags: W
PickledData: "(dp1
S'org.pippin.gimp.org.kernagic'
p2
(dp3
S'lstem'
p4
I0
sS'rstem'
p5
I0
ssS'com.typemytype.robofont.layerData'
p6
(dp7
sS'org.robofab.postScriptHintData'
p8
(dp9
s."
LayerCount: 2
Fore
SplineSet
907 -45 m 256
 1322 -45 1680 273 1680 729 c 256
 1680 1184 1322 1501 907 1501 c 256
 491 1501 134 1184 134 729 c 256
 134 273 491 -45 907 -45 c 256
907 92 m 256
 573 92 289 354 289 729 c 256
 289 1102 573 1364 907 1364 c 256
 1241 1364 1526 1102 1526 729 c 256
 1526 354 1241 92 907 92 c 256
765 821 m 257
 765 1070 l 257
 871 1070 l 257
 878 1070 l 258
 1029 1070 1086 1069 1086 946 c 256
 1086 846 1027 821 886 821 c 258
 765 821 l 257
610 314 m 257
 766 314 l 257
 766 711 l 257
 880 711 l 257
 883 707 1103 314 1103 314 c 257
 1284 314 l 257
 1284 314 1048 715 1042 722 c 257
 1188 756 1241 828 1241 952 c 256
 1241 1146 1112 1193 900 1193 c 258
 610 1193 l 257
 610 314 l 257
EndSplineSet
EndChar

StartChar: ring
Encoding: 403 730 334
Width: 785
VWidth: 0
GlyphClass: 4
Flags: W
PickledData: "(dp1
S'org.robofab.postScriptHintData'
p2
(dp3
sS'com.typemytype.robofont.layerData'
p4
(dp5
s."
AnchorPoint: "top" 371 1076 mark 0
LayerCount: 2
Fore
SplineSet
373 1193 m 256
 507 1193 592 1293 592 1405 c 256
 592 1516 509 1615 373 1615 c 256
 239 1615 157 1518 157 1405 c 256
 157 1293 240 1193 373 1193 c 256
373 1299 m 256
 311 1299 282 1347 282 1404 c 256
 282 1457 315 1509 373 1509 c 256
 433 1509 469 1457 469 1404 c 256
 469 1348 433 1299 373 1299 c 256
EndSplineSet
EndChar

StartChar: s
Encoding: 83 115 335
Width: 1001
VWidth: 0
GlyphClass: 2
Flags: W
PickledData: "(dp1
S'org.pippin.gimp.org.kernagic'
p2
(dp3
S'lstem'
p4
I168
sS'rstem'
p5
I620
ssS'org.robofab.postScriptHintData'
p6
(dp7
sS'com.typemytype.robofont.guides'
p8
((dp9
S'y'
I381
sS'x'
I77
sS'magnetic'
p10
I5
sS'angle'
p11
F90
sS'isGlobal'
p12
I00
stp13
sS'com.typemytype.robofont.layerData'
p14
(dp15
sS'com.fontlab.hintData'
p16
(dp17
S'vhints'
p18
((dp19
S'position'
p20
I142
sS'width'
p21
I107
s(dp22
g20
I738
sg21
I104
stp23
sS'hhints'
p24
((dp25
g20
I-19
sg21
I92
s(dp26
g20
I982
sg21
I92
stp27
ss."
HStem: -19 92 982 92
VStem: 142 107 738 104
AnchorPoint: "bot" 506 0 basechar 0
AnchorPoint: "top" 491 1082 basechar 0
LayerCount: 2
Fore
SplineSet
657 301 m 256
 657 231 612 183 520 183 c 256
 435 183 322 205 232 315 c 257
 207 315 l 257
 64 180 l 257
 170 44 328 -20 533 -20 c 256
 751 -20 945 90 946 309 c 256
 946 439 917 534 678 629 c 257
 537 686 l 257
 437 724 418 755 418 798 c 256
 418 860 466 895 552 895 c 256
 634 895 720 863 776 794 c 257
 789 794 l 257
 927 919 l 257
 847 1048 694 1103 514 1103 c 256
 261 1103 101 983 101 790 c 256
 101 639 176 548 395 470 c 258
 508 430 l 258
 635 386 657 349 657 301 c 256
EndSplineSet
EndChar

StartChar: section
Encoding: 102 167 341
Width: 1038
VWidth: 0
GlyphClass: 2
Flags: W
PickledData: "(dp1
S'org.pippin.gimp.org.kernagic'
p2
(dp3
S'lstem'
p4
I0
sS'rstem'
p5
I0
ssS'com.typemytype.robofont.layerData'
p6
(dp7
S'b'
(dp8
S'name'
p9
S'section'
p10
sS'lib'
p11
(dp12
sS'unicodes'
p13
(tsS'width'
p14
I1079
sS'contours'
p15
(tsS'components'
p16
(tsS'anchors'
p17
(tsssS'org.robofab.postScriptHintData'
p18
(dp19
s."
LayerCount: 2
Fore
SplineSet
664 624 m 257
 654 628 599 653 551 668 c 257
 402 731 363 753 363 811 c 256
 363 854 388 889 416 903 c 256
 419 901 486 874 564 842 c 256
 666 800 699 756 699 709 c 256
 699 673 686 646 664 624 c 257
503 -20 m 256
 723 -20 887 76 887 334 c 256
 887 420 857 493 789 551 c 257
 850 606 894 674 894 778 c 256
 894 902 838 983 652 1056 c 256
 422 1148 404 1174 404 1232 c 256
 404 1297 457 1330 557 1330 c 256
 647 1330 745 1300 809 1266 c 257
 864 1433 l 257
 763 1496 639 1528 535 1528 c 256
 349 1528 154 1450 154 1214 c 256
 154 1111 200 1037 294 970 c 257
 221 912 164 837 164 750 c 256
 164 619 244 551 423 479 c 256
 614 404 652 365 652 309 c 256
 652 221 596 180 497 180 c 256
 387 180 253 230 176 273 c 257
 176 63 l 257
 273 13 398 -20 503 -20 c 256
EndSplineSet
EndChar

StartChar: semicolon
Encoding: 27 59 342
Width: 749
VWidth: 0
GlyphClass: 2
Flags: W
PickledData: "(dp1
S'org.pippin.gimp.org.kernagic'
p2
(dp3
S'lstem'
p4
I0
sS'rstem'
p5
I0
ssS'com.typemytype.robofont.layerData'
p6
(dp7
sS'org.robofab.postScriptHintData'
p8
(dp9
s."
LayerCount: 2
Fore
SplineSet
381 800 m 256
 473 800 538 856 538 951 c 256
 538 1049 473 1107 381 1107 c 256
 290 1107 222 1049 222 951 c 256
 222 854 291 800 381 800 c 256
217 -336 m 257
 396 -336 l 257
 517 117 l 257
 517 268 l 257
 254 268 l 257
 254 222 217 -336 217 -336 c 257
EndSplineSet
EndChar

StartChar: seven
Encoding: 23 55 343
Width: 1343
VWidth: 0
GlyphClass: 2
Flags: W
PickledData: "(dp1
S'org.pippin.gimp.org.kernagic'
p2
(dp3
S'lstem'
p4
I0
sS'rstem'
p5
I0
ssS'com.typemytype.robofont.layerData'
p6
(dp7
sS'org.robofab.postScriptHintData'
p8
(dp9
s."
LayerCount: 2
Fore
SplineSet
327 0 m 257
 659 0 l 257
 1167 1230 l 257
 1163 1456 l 257
 180 1456 l 257
 192 1230 l 257
 833 1230 l 257
 327 0 l 257
EndSplineSet
EndChar

StartChar: six
Encoding: 22 54 344
Width: 1343
VWidth: 0
GlyphClass: 2
Flags: W
PickledData: "(dp1
S'org.pippin.gimp.org.kernagic'
p2
(dp3
S'lstem'
p4
I0
sS'rstem'
p5
I0
ssS'com.typemytype.robofont.layerData'
p6
(dp7
sS'org.robofab.postScriptHintData'
p8
(dp9
s."
LayerCount: 2
Fore
SplineSet
675 197 m 256
 533 197 450 305 450 453 c 256
 450 630 559 716 677 716 c 256
 816 716 899 611 899 455 c 256
 899 306 816 197 675 197 c 256
675 -20 m 256
 1008 -20 1208 175 1208 447 c 256
 1208 751 991 896 777 896 c 256
 701 896 635 874 584 846 c 257
 736 1036 880 1233 1027 1428 c 257
 1027 1456 l 257
 689 1456 l 257
 314 922 l 258
 209 774 142 648 142 462 c 256
 142 189 337 -20 675 -20 c 256
EndSplineSet
EndChar

StartChar: slash
Encoding: 15 47 345
Width: 1006
VWidth: 0
GlyphClass: 2
Flags: W
PickledData: "(dp1
S'org.pippin.gimp.org.kernagic'
p2
(dp3
S'lstem'
p4
I0
sS'rstem'
p5
I0
ssS'com.typemytype.robofont.layerData'
p6
(dp7
S'b'
(dp8
S'name'
p9
S'slash'
p10
sS'lib'
p11
(dp12
sS'unicodes'
p13
(tsS'width'
p14
I965
sS'contours'
p15
(tsS'components'
p16
(tsS'anchors'
p17
(tsssS'org.robofab.postScriptHintData'
p18
(dp19
s."
LayerCount: 2
Fore
SplineSet
79 -172 m 257
 275 -172 l 257
 917 1560 l 257
 717 1560 l 257
 79 -172 l 257
EndSplineSet
EndChar

StartChar: slashbar
Encoding: 65543 -1 346
Width: 477
VWidth: 0
GlyphClass: 4
Flags: W
PickledData: "(dp1
S'org.pippin.gimp.org.kernagic'
p2
(dp3
S'lstem'
p4
I0
sS'rstem'
p5
I0
ssS'com.typemytype.robofont.layerData'
p6
(dp7
S'b'
(dp8
S'name'
p9
S'slashbar'
p10
sS'lib'
p11
(dp12
sS'unicodes'
p13
(tsS'width'
p14
I908
sS'contours'
p15
(tsS'components'
p16
(tsS'anchors'
p17
(tsssS'org.robofab.postScriptHintData'
p18
(dp19
s."
LayerCount: 2
Fore
SplineSet
153 458 m 257
 806 714 l 257
 806 925 l 257
 153 668 l 257
 153 458 l 257
EndSplineSet
EndChar

StartChar: sterling
Encoding: 98 163 348
Width: 1197
VWidth: 0
GlyphClass: 2
Flags: W
PickledData: "(dp1
S'org.pippin.gimp.org.kernagic'
p2
(dp3
S'lstem'
p4
I0
sS'rstem'
p5
I0
ssS'com.typemytype.robofont.layerData'
p6
(dp7
S'b'
(dp8
S'name'
p9
S'sterling'
p10
sS'lib'
p11
(dp12
sS'unicodes'
p13
(tsS'width'
p14
I1136
sS'contours'
p15
((dp16
S'points'
p17
((dp18
S'segmentType'
p19
S'line'
p20
sS'x'
I20
sS'smooth'
p21
I00
sS'y'
I0
s(dp22
g19
S'line'
p23
sS'x'
I8
sg21
I00
sS'y'
I115
s(dp24
g19
S'line'
p25
sS'x'
I180
sg21
I00
sS'y'
I132
s(dp26
g19
S'line'
p27
sS'x'
I180
sg21
I00
sS'y'
I683
s(dp28
g19
S'line'
p29
sS'x'
I8
sg21
I00
sS'y'
I683
s(dp30
g19
S'line'
p31
sS'x'
I8
sg21
I00
sS'y'
I806
s(dp32
g19
S'line'
p33
sS'x'
I180
sg21
I00
sS'y'
I806
s(dp34
g19
S'line'
p35
sS'x'
I180
sg21
I01
sS'y'
I920
s(dp36
S'y'
I1183
sS'x'
I180
sg21
I00
s(dp37
S'y'
I1476
sS'x'
I245
sg21
I00
s(dp38
g19
S'curve'
p39
sS'x'
I598
sg21
I01
sS'y'
I1476
s(dp40
S'y'
I1476
sS'x'
I742
sg21
I00
s(dp41
S'y'
I1421
sS'x'
I854
sg21
I00
s(dp42
g19
S'curve'
p43
sS'x'
I939
sg21
I00
sS'y'
I1347
s(dp44
g19
S'line'
p45
sS'x'
I871
sg21
I00
sS'y'
I1229
s(dp46
S'y'
I1297
sS'x'
I785
sg21
I00
s(dp47
S'y'
I1334
sS'x'
I700
sg21
I00
s(dp48
g19
S'curve'
p49
sS'x'
I598
sg21
I01
sS'y'
I1334
s(dp50
S'y'
I1334
sS'x'
I397
sg21
I00
s(dp51
S'y'
I1179
sS'x'
I356
sg21
I00
s(dp52
g19
S'curve'
p53
sS'x'
I356
sg21
I01
sS'y'
I949
s(dp54
g19
S'line'
p55
sS'x'
I356
sg21
I00
sS'y'
I806
s(dp56
g19
S'line'
p57
sS'x'
I739
sg21
I00
sS'y'
I806
s(dp58
g19
S'line'
p59
sS'x'
I739
sg21
I00
sS'y'
I683
s(dp60
g19
S'line'
p61
sS'x'
I356
sg21
I00
sS'y'
I683
s(dp62
g19
S'line'
p63
sS'x'
I356
sg21
I00
sS'y'
I134
s(dp64
g19
S'line'
p65
sS'x'
I953
sg21
I00
sS'y'
I134
s(dp66
g19
S'line'
p67
sS'x'
I940
sg21
I00
sS'y'
I0
stp68
stp69
sS'components'
p70
(tsS'anchors'
p71
(tsssS'org.robofab.postScriptHintData'
p72
(dp73
s."
LayerCount: 2
Fore
SplineSet
575 1016 m 258
 575 1197 650 1287 783 1287 c 256
 857 1287 921 1258 992 1216 c 257
 1012 1216 l 257
 1112 1402 l 257
 1069 1440 932 1532 720 1532 c 256
 379 1532 264 1302 264 973 c 258
 264 853 l 257
 81 853 l 257
 81 670 l 257
 264 670 l 257
 264 217 l 257
 88 196 l 257
 99 0 l 257
 1095 0 l 257
 1102 219 l 257
 575 219 l 257
 575 670 l 257
 903 670 l 257
 903 853 l 257
 575 853 l 257
 575 1016 l 258
EndSplineSet
EndChar

StartChar: t
Encoding: 84 116 350
Width: 867
VWidth: 0
GlyphClass: 2
Flags: W
PickledData: "(dp1
S'org.pippin.gimp.org.kernagic'
p2
(dp3
S'lstem'
p4
I189
sS'rstem'
p5
I480
ssS'com.fontlab.hintData'
p6
(dp7
S'vhints'
p8
((dp9
S'position'
p10
I244
sS'width'
p11
I122
s(dp12
g10
I286
sg11
I80
stp13
sS'hhints'
p14
((dp15
g10
I-11
sg11
I83
stp16
ssS'com.typemytype.robofont.layerData'
p17
(dp18
sS'org.robofab.postScriptHintData'
p19
(dp20
s."
HStem: -11 83
VStem: 244 122 286 80
AnchorPoint: "bot" 503 0 basechar 0
AnchorPoint: "top" 400 1339 basechar 0
LayerCount: 2
Fore
SplineSet
622 -9 m 257
 802 -4 l 257
 811 196 l 257
 667 202 l 258
 534 208 508 252 508 386 c 258
 508 905 l 257
 796 905 l 257
 796 1082 l 257
 508 1082 l 257
 508 1409 l 257
 235 1388 l 257
 214 1084 l 257
 48 1067 l 257
 41 905 l 257
 206 905 l 257
 206 395 l 258
 206 120 257 -9 622 -9 c 257
EndSplineSet
EndChar

StartChar: thorn
Encoding: 189 254 355
Width: 1141
VWidth: 0
GlyphClass: 2
Flags: W
PickledData: "(dp1
S'org.pippin.gimp.org.kernagic'
p2
(dp3
S'lstem'
p4
I0
sS'rstem'
p5
I0
ssS'com.typemytype.robofont.layerData'
p6
(dp7
S'b'
(dp8
S'name'
p9
S'thorn'
p10
sS'lib'
p11
(dp12
sS'unicodes'
p13
(tsS'width'
p14
I1221
sS'contours'
p15
(tsS'components'
p16
(tsS'anchors'
p17
(tsssS'org.robofab.postScriptHintData'
p18
(dp19
s."
LayerCount: 2
Fore
SplineSet
164 507 m 257
 164 -437 l 257
 465 -437 l 257
 465 507 l 257
 164 507 l 257
EndSplineSet
Refer: 155 98 N 1 0 0 1 26 0 2
EndChar

StartChar: three
Encoding: 19 51 356
Width: 1231
VWidth: 0
GlyphClass: 2
Flags: W
PickledData: "(dp1
S'org.pippin.gimp.org.kernagic'
p2
(dp3
S'lstem'
p4
I0
sS'rstem'
p5
I0
ssS'com.typemytype.robofont.layerData'
p6
(dp7
sS'org.robofab.postScriptHintData'
p8
(dp9
s."
LayerCount: 2
Fore
SplineSet
576 -20 m 256
 850 -20 1104 114 1104 406 c 256
 1104 565 1017 730 768 759 c 257
 1004 798 1062 950 1062 1091 c 256
 1059 1352 857 1476 568 1476 c 256
 358 1476 186 1384 102 1253 c 257
 246 1105 l 257
 266 1101 l 257
 348 1199 442 1238 550 1239 c 256
 688 1239 756 1176 758 1053 c 256
 758 870 625 837 430 837 c 257
 333 836 l 257
 355 642 l 257
 433 642 l 258
 649 642 782 603 782 420 c 256
 782 289 701 214 554 214 c 256
 425 214 311 272 249 351 c 257
 226 351 l 257
 95 195 l 257
 144 112 321 -20 576 -20 c 256
EndSplineSet
EndChar

StartChar: threequarters
Encoding: 125 190 357
Width: 1727
VWidth: 0
GlyphClass: 3
Flags: W
PickledData: "(dp1
S'org.pippin.gimp.org.kernagic'
p2
(dp3
S'lstem'
p4
I0
sS'rstem'
p5
I0
ssS'com.typemytype.robofont.layerData'
p6
(dp7
sS'org.robofab.postScriptHintData'
p8
(dp9
s."
LayerCount: 2
Fore
SplineSet
1259 318 m 257
 1457 655 l 257
 1457 318 l 257
 1259 318 l 257
415 0 m 257
 615 0 l 257
 1586 1499 l 257
 1393 1499 l 257
 415 0 l 257
1456 0 m 257
 1619 0 l 257
 1619 181 l 257
 1721 181 l 257
 1731 318 l 257
 1618 318 l 257
 1618 871 l 257
 1446 871 l 257
 1081 319 l 257
 1081 181 l 257
 1456 181 l 257
 1456 0 l 257
370 580 m 256
 543 580 697 667 697 851 c 256
 697 947 642 1036 540 1059 c 257
 645 1080 677 1172 679 1248 c 256
 679 1409 548 1474 401 1474 c 256
 299 1474 190 1444 109 1391 c 257
 165 1275 l 257
 236 1315 312 1335 374 1335 c 256
 455 1335 514 1301 514 1227 c 256
 514 1161 486 1121 364 1121 c 258
 251 1121 l 257
 251 984 l 257
 363 986 l 257
 367 986 l 258
 485 986 534 936 534 855 c 256
 534 760 456 721 365 721 c 256
 294 721 216 745 160 785 c 257
 102 652 l 257
 182 605 278 580 370 580 c 256
EndSplineSet
Ligature2: "fracDiagonalFractionslookup11 subtable" three slash four
EndChar

StartChar: tilde
Encoding: 405 732 358
Width: 977
VWidth: 0
GlyphClass: 4
Flags: W
PickledData: "(dp1
S'org.robofab.postScriptHintData'
p2
(dp3
sS'com.fontlab.hintData'
p4
(dp5
S'vhints'
p6
((dp7
S'position'
p8
I169
sS'width'
p9
I63
s(dp10
g8
I657
sg9
I67
stp11
sS'hhints'
p12
((dp13
g8
I1301
sg9
I88
s(dp14
g8
I1400
sg9
I79
stp15
ssS'com.typemytype.robofont.layerData'
p16
(dp17
s."
HStem: 1301 88 1400 79
VStem: 169 63 657 67
AnchorPoint: "top" 488 1076 mark 0
LayerCount: 2
Fore
SplineSet
155 1267 m 257
 282 1267 l 257
 297 1339 321 1366 356 1366 c 256
 424 1366 528 1267 639 1267 c 256
 776 1267 825 1399 825 1519 c 257
 697 1519 l 257
 683 1457 663 1436 635 1436 c 256
 577 1436 487 1520 353 1520 c 256
 206 1520 155 1393 155 1267 c 257
EndSplineSet
EndChar

StartChar: trademark
Encoding: 463 8482 359
Width: 2095
VWidth: 0
GlyphClass: 2
Flags: W
PickledData: "(dp1
S'org.robofab.postScriptHintData'
p2
(dp3
sS'com.typemytype.robofont.layerData'
p4
(dp5
S'b'
(dp6
S'name'
p7
S'trademark'
p8
sS'lib'
p9
(dp10
sS'unicodes'
p11
(tsS'width'
p12
I2216
sS'contours'
p13
(tsS'components'
p14
(tsS'anchors'
p15
(tsss."
LayerCount: 2
Fore
SplineSet
356 521 m 257
 545 521 l 257
 545 1309 l 257
 817 1309 l 257
 817 1456 l 257
 84 1456 l 257
 84 1309 l 257
 356 1309 l 257
 356 521 l 257
926 521 m 257
 1103 521 l 257
 1118 1142 l 257
 1376 609 l 257
 1478 609 l 257
 1737 1139 l 257
 1752 521 l 257
 1928 521 l 257
 1909 1456 l 257
 1718 1456 l 257
 1428 853 l 257
 1137 1456 l 257
 945 1456 l 257
 926 521 l 257
EndSplineSet
EndChar

StartChar: two
Encoding: 18 50 360
Width: 1343
VWidth: 0
GlyphClass: 2
Flags: W
PickledData: "(dp1
S'org.pippin.gimp.org.kernagic'
p2
(dp3
S'lstem'
p4
I0
sS'rstem'
p5
I0
ssS'com.typemytype.robofont.layerData'
p6
(dp7
sS'org.robofab.postScriptHintData'
p8
(dp9
s."
LayerCount: 2
Fore
SplineSet
296 1075 m 257
 380 1175 516 1242 647 1242 c 256
 770 1242 868 1166 868 1031 c 256
 868 924 820 853 714 749 c 258
 173 216 l 257
 221 0 l 257
 1137 0 l 257
 1146 220 l 257
 534 220 l 257
 889 557 l 258
 1088 746 1159 872 1159 1027 c 256
 1159 1266 1005 1476 650 1476 c 256
 419 1476 235 1358 128 1231 c 257
 272 1075 l 257
 296 1075 l 257
EndSplineSet
EndChar

StartChar: u
Encoding: 85 117 361
Width: 1246
VWidth: 0
GlyphClass: 2
Flags: W
PickledData: "(dp1
S'org.pippin.gimp.org.kernagic'
p2
(dp3
S'lstem'
p4
I0
sS'rstem'
p5
I0
ssS'com.fontlab.hintData'
p6
(dp7
S'vhints'
p8
((dp9
S'position'
p10
I162
sS'width'
p11
I166
s(dp12
g10
I862
sg11
I166
stp13
sS'hhints'
p14
((dp15
g10
I-21
sg11
I126
stp16
ssS'com.typemytype.robofont.layerData'
p17
(dp18
sS'org.robofab.postScriptHintData'
p19
(dp20
s."
HStem: -21 126
VStem: 162 166 862 166
AnchorPoint: "bot" 616 0 basechar 0
AnchorPoint: "top" 628 1082 basechar 0
LayerCount: 2
Fore
SplineSet
801 285 m 257
 767 239 706 180 599 180 c 256
 483 180 433 251 433 440 c 258
 433 1082 l 257
 127 1082 l 257
 127 407 l 258
 127 136 256 -20 503 -20 c 256
 670 -20 769 58 829 152 c 257
 844 0 l 257
 1108 0 l 257
 1108 1082 l 257
 801 1082 l 257
 801 285 l 257
EndSplineSet
EndChar

StartChar: underscore
Encoding: 63 95 369
Width: 973
VWidth: 0
GlyphClass: 2
Flags: W
PickledData: "(dp1
S'org.pippin.gimp.org.kernagic'
p2
(dp3
S'lstem'
p4
I0
sS'rstem'
p5
I0
ssS'com.typemytype.robofont.layerData'
p6
(dp7
sS'org.robofab.postScriptHintData'
p8
(dp9
s."
LayerCount: 2
Fore
SplineSet
0 -280 m 257
 973 -280 l 257
 973 -102 l 257
 0 -102 l 257
 0 -280 l 257
EndSplineSet
EndChar

StartChar: uni00AD
Encoding: 108 173 372
Width: 1006
VWidth: 0
GlyphClass: 2
Flags: W
PickledData: "(dp1
S'org.robofab.postScriptHintData'
p2
(dp3
s."
LayerCount: 2
Fore
SplineSet
172 210 m 257
 826 210 l 257
 826 417 l 257
 172 417 l 257
 172 210 l 257
EndSplineSet
EndChar

StartChar: uni00B2
Encoding: 113 178 373
Width: 828
VWidth: 0
GlyphClass: 2
Flags: W
PickledData: "(dp1
S'org.robofab.postScriptHintData'
p2
(dp3
sS'com.typemytype.robofont.layerData'
p4
(dp5
s."
LayerCount: 2
Fore
SplineSet
155 610 m 257
 700 610 l 257
 716 753 l 257
 412 753 l 257
 536 866 497 817 592 911 c 256
 667 988 717 1093 717 1205 c 256
 717 1384 579 1485 442 1485 c 256
 313 1485 214 1443 149 1354 c 257
 225 1235 l 257
 270 1296 344 1330 423 1330 c 256
 485 1330 545 1280 545 1201 c 256
 545 1159 489 1081 458 1038 c 257
 278 838 252 851 155 752 c 257
 155 610 l 257
EndSplineSet
EndChar

StartChar: uni00B3
Encoding: 114 179 374
Width: 881
VWidth: 0
GlyphClass: 2
Flags: W
PickledData: "(dp1
S'org.robofab.postScriptHintData'
p2
(dp3
sS'com.typemytype.robofont.layerData'
p4
(dp5
s."
LayerCount: 2
Fore
SplineSet
432 593 m 256
 608 593 763 679 763 858 c 256
 763 958 705 1047 606 1067 c 257
 708 1087 746 1170 748 1255 c 256
 748 1419 616 1482 468 1482 c 256
 357 1482 243 1449 162 1394 c 257
 218 1283 l 257
 284 1325 363 1348 437 1348 c 256
 523 1348 589 1315 589 1237 c 256
 589 1171 565 1128 432 1128 c 258
 312 1128 l 257
 312 998 l 257
 430 999 l 257
 436 999 l 258
 555 999 607 944 607 865 c 256
 607 771 523 728 426 728 c 256
 344 728 264 756 212 800 c 257
 153 670 l 257
 232 619 334 593 432 593 c 256
EndSplineSet
EndChar

StartChar: uni00B9
Encoding: 120 185 376
Width: 865
VWidth: 0
GlyphClass: 2
Flags: W
PickledData: "(dp1
S'org.robofab.postScriptHintData'
p2
(dp3
sS'com.typemytype.robofont.layerData'
p4
(dp5
s."
LayerCount: 2
Fore
SplineSet
244 577 m 257
 723 577 l 257
 723 732 l 257
 577 732 l 257
 577 1467 l 257
 432 1467 l 257
 403 1449 280 1379 230 1354 c 257
 230 1199 l 257
 238 1199 351 1255 388 1274 c 257
 388 732 l 257
 244 732 l 257
 244 577 l 257
EndSplineSet
EndChar

StartChar: uni02C9
Encoding: 400 713 445
Width: 600
VWidth: 0
GlyphClass: 4
Flags: W
PickledData: "(dp1
S'org.robofab.postScriptHintData'
p2
(dp3
s."
AnchorPoint: "top" 295 1076 mark 0
LayerCount: 2
Fore
SplineSet
-50 1339 m 257
 636 1339 l 257
 636 1506 l 257
 -50 1506 l 257
 -50 1339 l 257
EndSplineSet
EndChar

StartChar: uni0307
Encoding: 407 775 446
Width: 576
VWidth: 0
GlyphClass: 4
Flags: W
PickledData: "(dp1
S'org.robofab.postScriptHintData'
p2
(dp3
sS'com.typemytype.robofont.layerData'
p4
(dp5
s."
LayerCount: 2
Fore
SplineSet
463 1455 m 256
 463 1551 398 1611 292 1611 c 256
 185 1611 119 1551 119 1455 c 256
 119 1354 185 1292 292 1292 c 256
 398 1292 463 1354 463 1455 c 256
EndSplineSet
EndChar

StartChar: uni2074
Encoding: 460 8308 465
Width: 692
VWidth: 0
GlyphClass: 2
Flags: W
PickledData: "(dp1
S'org.robofab.postScriptHintData'
p2
(dp3
sS'com.typemytype.robofont.layerData'
p4
(dp5
s."
LayerCount: 2
Fore
SplineSet
178 914 m 257
 366 1256 l 257
 366 914 l 257
 178 914 l 257
365 594 m 257
 524 594 l 257
 524 781 l 257
 625 781 l 257
 639 914 l 257
 524 914 l 257
 524 1468 l 257
 356 1468 l 257
 4 922 l 257
 4 781 l 257
 365 781 l 257
 365 594 l 257
EndSplineSet
EndChar

StartChar: afii61289
Encoding: 462 8467 466
Width: 1318
VWidth: 0
Flags: W
PickledData: "(dp1
S'org.robofab.postScriptHintData'
p2
(dp3
s."
LayerCount: 2
Fore
SplineSet
293 294 m 256
 293 79 413 -20 588 -20 c 256
 850 -20 1020 98 1020 98 c 257
 992 278 l 257
 890 233 794 201 717 201 c 256
 644 202 603 236 603 318 c 256
 603 345 607 378 617 417 c 258
 675 652 l 257
 963 865 l 258
 1215 1051 1316 1146 1316 1356 c 256
 1316 1583 1136 1702 951 1702 c 256
 791 1702 629 1615 569 1396 c 258
 370 661 l 257
 70 441 l 257
 125 334 l 257
 314 466 l 257
 299 402 293 345 293 294 c 256
728 873 m 257
 805 1200 l 257
 825 1279 878 1473 990 1473 c 256
 1068 1473 1108 1430 1108 1363 c 256
 1108 1272 1035 1138 888 1011 c 258
 728 873 l 257
EndSplineSet
EndChar

StartChar: Delta
Encoding: 468 8710 468
Width: 1317
VWidth: 0
Flags: W
PickledData: "(dp1
S'org.pippin.gimp.org.kernagic'
p2
(dp3
S'lstem'
p4
I0
sS'rstem'
p5
I0
ssS'com.typemytype.robofont.layerData'
p6
(dp7
S'b'
(dp8
S'name'
p9
S'uni2206'
p10
sS'lib'
p11
(dp12
sS'unicodes'
p13
(tsS'width'
p14
I1278
sS'contours'
p15
(tsS'components'
p16
(tsS'anchors'
p17
(tsssS'org.robofab.postScriptHintData'
p18
(dp19
s."
LayerCount: 2
Fore
SplineSet
692 1220 m 257
 1050 177 l 257
 272 177 l 257
 624 1220 l 257
 658 1342 l 257
 692 1220 l 257
566 1575 m 257
 70 88 l 257
 70 0 l 257
 1252 0 l 257
 1252 88 l 257
 757 1575 l 257
 566 1575 l 257
EndSplineSet
EndChar

StartChar: v
Encoding: 86 118 479
Width: 1095
VWidth: 0
GlyphClass: 2
Flags: W
PickledData: "(dp1
S'org.pippin.gimp.org.kernagic'
p2
(dp3
S'lstem'
p4
I0
sS'rstem'
p5
I0
ssS'com.typemytype.robofont.guides'
p6
((dp7
S'y'
I552
sS'x'
I438
sS'magnetic'
p8
I5
sS'angle'
p9
I0
sS'isGlobal'
p10
I00
stp11
sS'com.typemytype.robofont.layerData'
p12
(dp13
sS'org.robofab.postScriptHintData'
p14
(dp15
s."
LayerCount: 2
Fore
SplineSet
400 0 m 257
 705 0 l 257
 1074 1082 l 257
 767 1082 l 257
 699 831 628 582 564 326 c 257
 336 1082 l 257
 22 1082 l 257
 400 0 l 257
EndSplineSet
EndChar

StartChar: w
Encoding: 87 119 480
Width: 1527
VWidth: 0
GlyphClass: 2
Flags: W
PickledData: "(dp1
S'org.pippin.gimp.org.kernagic'
p2
(dp3
S'lstem'
p4
I0
sS'rstem'
p5
I0
ssS'com.typemytype.robofont.layerData'
p6
(dp7
sS'org.robofab.postScriptHintData'
p8
(dp9
s."
AnchorPoint: "top" 776 1082 basechar 0
LayerCount: 2
Fore
SplineSet
776 787 m 257
 962 -4 l 257
 1246 -4 l 257
 1516 1082 l 257
 1253 1082 l 257
 1104 305 l 257
 916 1082 l 257
 636 1082 l 257
 433 297 l 257
 292 1082 l 257
 9 1082 l 257
 277 -4 l 257
 550 -4 l 257
 776 787 l 257
EndSplineSet
EndChar

StartChar: x
Encoding: 88 120 485
Width: 1086
VWidth: 0
GlyphClass: 2
Flags: W
PickledData: "(dp1
S'org.pippin.gimp.org.kernagic'
p2
(dp3
S'lstem'
p4
I0
sS'rstem'
p5
I0
ssS'com.fontlab.hintData'
p6
(dp7
S'hhints'
p8
((dp9
S'position'
p10
I0
sS'width'
p11
I22
s(dp12
g10
I1034
sg11
I21
stp13
ssS'com.typemytype.robofont.layerData'
p14
(dp15
sS'org.robofab.postScriptHintData'
p16
(dp17
s."
HStem: 0 22 1034 21
LayerCount: 2
Fore
SplineSet
711 546 m 257
 1058 1082 l 257
 771 1082 l 257
 564 767 l 257
 356 1082 l 257
 32 1082 l 257
 386 545 l 257
 13 -4 l 257
 304 -4 l 257
 532 324 l 257
 748 -4 l 257
 1075 -4 l 257
 711 546 l 257
EndSplineSet
EndChar

StartChar: y
Encoding: 89 121 486
Width: 1134
VWidth: 0
GlyphClass: 2
Flags: W
PickledData: "(dp1
S'org.pippin.gimp.org.kernagic'
p2
(dp3
S'lstem'
p4
I0
sS'rstem'
p5
I0
ssS'com.typemytype.robofont.layerData'
p6
(dp7
sS'org.robofab.postScriptHintData'
p8
(dp9
s."
AnchorPoint: "top" 561 1082 basechar 0
LayerCount: 2
Fore
SplineSet
1131 1082 m 257
 846 1082 l 257
 577 412 l 257
 293 1082 l 257
 -9 1082 l 257
 427 120 l 257
 225 -351 l 257
 472 -441 l 257
 1131 1082 l 257
EndSplineSet
EndChar

StartChar: yen
Encoding: 100 165 490
Width: 1353
VWidth: 0
GlyphClass: 2
Flags: W
PickledData: "(dp1
S'org.pippin.gimp.org.kernagic'
p2
(dp3
S'lstem'
p4
I0
sS'rstem'
p5
I0
ssS'com.typemytype.robofont.layerData'
p6
(dp7
S'b'
(dp8
S'name'
p9
S'yen'
p10
sS'lib'
p11
(dp12
sS'unicodes'
p13
(tsS'width'
p14
I1366
sS'contours'
p15
(tsS'components'
p16
(tsS'anchors'
p17
(tsssS'org.robofab.postScriptHintData'
p18
(dp19
s."
LayerCount: 2
Fore
SplineSet
207 526 m 257
 1119 526 l 257
 1119 659 l 257
 207 659 l 257
 207 526 l 257
207 244 m 257
 1119 244 l 257
 1119 376 l 257
 207 376 l 257
 207 244 l 257
EndSplineSet
Refer: 124 89 N 1 0 0 1 0 0 2
EndChar

StartChar: z
Encoding: 90 122 492
Width: 974
VWidth: 0
GlyphClass: 2
Flags: W
PickledData: "(dp1
S'org.pippin.gimp.org.kernagic'
p2
(dp3
S'lstem'
p4
I0
sS'rstem'
p5
I0
ssS'com.typemytype.robofont.layerData'
p6
(dp7
sS'org.robofab.postScriptHintData'
p8
(dp9
s."
AnchorPoint: "bot" 500 0 basechar 0
AnchorPoint: "top" 486 1082 basechar 0
LayerCount: 2
Fore
SplineSet
86 1082 m 257
 83 895 l 257
 568 895 l 257
 76 155 l 257
 76 0 l 257
 914 0 l 257
 916 195 l 257
 422 195 l 257
 897 910 l 257
 897 1082 l 257
 86 1082 l 257
EndSplineSet
EndChar

StartChar: zero
Encoding: 16 48 496
Width: 1343
VWidth: 0
GlyphClass: 2
Flags: W
PickledData: "(dp1
S'org.pippin.gimp.org.kernagic'
p2
(dp3
S'lstem'
p4
I0
sS'rstem'
p5
I0
ssS'com.typemytype.robofont.layerData'
p6
(dp7
S'b'
(dp8
S'name'
p9
S'zero'
p10
sS'lib'
p11
(dp12
sS'unicodes'
p13
(tsS'width'
p14
I1248
sS'contours'
p15
(tsS'components'
p16
(tsS'anchors'
p17
(tsssS'org.robofab.postScriptHintData'
p18
(dp19
s."
LayerCount: 2
Fore
SplineSet
673 -20 m 256
 1041 -20 1247 266 1247 722 c 256
 1247 1183 1035 1476 673 1476 c 256
 311 1476 96 1182 96 722 c 256
 96 266 305 -20 673 -20 c 256
673 216 m 256
 524 216 430 390 430 723 c 256
 433 1047 526 1239 673 1239 c 256
 822 1239 912 1057 912 724 c 256
 912 390 822 216 673 216 c 256
EndSplineSet
EndChar

StartChar: Sigma
Encoding: 414 931 498
Width: 1159
VWidth: 0
GlyphClass: 2
Flags: HW
LayerCount: 2
Fore
SplineSet
76 1456 m 257
 76 1266 l 257
 565 590 l 257
 66 -66 l 257
 66 -251 l 257
 1108 -251 l 257
 1108 -13 l 257
 397 -13 l 257
 884 601 l 257
 450 1224 l 257
 1071 1224 l 257
 1071 1456 l 257
 76 1456 l 257
EndSplineSet
EndChar

StartChar: uni03BC
Encoding: 416 956 499
Width: 1230
VWidth: 0
GlyphClass: 2
Flags: HW
LayerCount: 2
Fore
SplineSet
801 285 m 1
 767 239 706 180 599 180 c 0
 483 180 433 251 433 440 c 2
 433 1082 l 1
 127 1082 l 1
 127 -316 l 1
 433 -316 l 1
 433 -15.4363640384 l 1
 455.165432779 -18.4654544758 478.502343403 -20 503 -20 c 0
 670 -20 769 58 829 152 c 1
 844 0 l 1
 1108 0 l 1
 1108 1082 l 1
 801 1082 l 1
 801 285 l 1
EndSplineSet
EndChar

StartChar: emptyset
Encoding: 467 8709 500
Width: 1678
VWidth: 0
GlyphClass: 2
Flags: HW
LayerCount: 2
Fore
SplineSet
82 733 m 0
 82 1166.80946597 442.209815076 1503 832 1503 c 0
 1004.35045892 1503 1170.57714551 1436.64052905 1301.24586005 1328.04368449 c 1
 1477.31911498 1526.00175077 l 1
 1561.72644822 1459.84465174 l 1
 1377.81237312 1254.59247954 l 1
 1502.33292724 1118.61178229 1582 936.912646963 1582 733 c 0
 1582 299.19053403 1221.79018492 -37 832 -37 c 0
 663.65585325 -37 500.761436846 26.9147562655 372.039708811 130.364524004 c 1
 179.247127373 -85.5230020853 l 1
 102.837527348 -16.2768020626 l 1
 295.927129296 200.949000129 l 1
 164.973700487 338.946971454 82 524.061830571 82 733 c 0
441.111982555 207.214092897 m 1
 554.498441307 117.634669994 690.831108418 67 832 67 c 0
 1166.18355854 67 1479 357.798552711 1479 733 c 0
 1479 906.120869845 1412.2075901 1060.43924838 1308.46052089 1177.50069952 c 1
 441.111982555 207.214092897 l 1
364.99056526 277.958566548 m 1
 1232.31455449 1251.19340595 l 1
 1118.11103474 1345.21012056 977.209135989 1399 832 1399 c 0
 497.816441459 1399 185 1108.20144729 185 733 c 0
 185 554.760063962 255.941876746 395.12530095 364.99056526 277.958566548 c 1
EndSplineSet
EndChar

StartChar: uni03A9
Encoding: 415 937 501
Width: 2048
VWidth: 0
GlyphClass: 2
Flags: HW
LayerCount: 2
Fore
SplineSet
101.000508652 -25 m 1
 79.5902522419 142 l 1
 394.661196761 142 l 1
 218.945412804 287.842318277 98 505.909508794 98 773 c 0
 98 1197.17929775 406.946781187 1472 816 1472 c 0
 1241.97642745 1472 1511 1166.23423812 1511 770 c 0
 1511 495.330817611 1363.6454094 282.266101579 1203.87543699 142 c 1
 1518.93162538 142 l 1
 1500.37606983 -25 l 1
 947.226239691 -25 l 1
 945.878073241 123.298309456 l 1
 957.132495094 130.801257358 l 0
 1158.57384678 265.095491816 1305 482.672997706 1305 751 c 0
 1305 1046.66968547 1138.5608683 1294 810 1294 c 0
 510.15184934 1294 304 1081.06662607 304 756 c 0
 304 488.970966371 442.08879698 263.78393095 647.568959569 130.997222107 c 0
 658.876579039 123.689939714 l 1
 660.228305764 -25 l 1
 101.000508652 -25 l 1
EndSplineSet
EndChar

StartChar: uni0358
Encoding: 412 856 502
Width: 576
VWidth: 0
GlyphClass: 4
Flags: HW
LayerCount: 2
Fore
SplineSet
463 1455 m 256
 463 1551 398 1611 292 1611 c 256
 185 1611 119 1551 119 1455 c 256
 119 1354 185 1292 292 1292 c 256
 398 1292 463 1354 463 1455 c 256
EndSplineSet
EndChar

StartChar: uni0259
Encoding: 397 601 503
Width: 1180
VWidth: 0
Flags: HW
HStem: -19 94 982 92
LayerCount: 2
Fore
SplineSet
792 458 m 261
 780 268 688 178 557 178 c 260
 428 178 365 267 364 458 c 261
 792 458 l 261
538 1103 m 260
 365 1103 212 1051 126 977 c 261
 193 813 l 261
 209 813 l 261
 294 866 389 903 503 903 c 260
 661 903 779 811 795 626 c 261
 119 626 l 261
 119 626 108 569 108 499 c 260
 112 191 249 -20 572 -20 c 260
 886 -20 1102 193 1102 542 c 260
 1102 888 875 1103 538 1103 c 260
EndSplineSet
EndChar
